<?xml version="1.0" standalone="no"?>
<!DOCTYPE svg PUBLIC "-//W3C//DTD SVG 1.1//EN" "http://www.w3.org/Graphics/SVG/1.1/DTD/svg11.dtd" >
<svg>
<metadata>
Created by FontForge 20090622 at Wed Sep  9 06:29:09 2020
 By deploy user
BahamasHeavy is a CopyRight (c) 1991, Corel Systems Corporation. All rights reserved. Russian Edition by Sabina Ltd. &#194;&#169; 1994. All Rights Reserved.
</metadata>
<defs>
<font id="BahamasHeavyPSMT" horiz-adv-x="611" >
  <font-face 
    font-family="Bahamas Heavy"
    font-weight="400"
    font-stretch="normal"
    units-per-em="1000"
    panose-1="0 0 0 0 0 0 0 0 0 0"
    ascent="800"
    descent="-200"
    x-height="500"
    cap-height="701"
    bbox="-76 -217 1146 941"
    underline-thickness="50"
    underline-position="-75"
    unicode-range="U+0020-U+2122"
  />
<missing-glyph horiz-adv-x="941" 
d="M58 0v941h825v-941h-825zM825 58v825h-709v-825h709z" />
    <glyph glyph-name=".notdef" horiz-adv-x="941" 
d="M58 0v941h825v-941h-825zM825 58v825h-709v-825h709z" />
    <glyph glyph-name=".null" horiz-adv-x="0" 
 />
    <glyph glyph-name="nonmarkingreturn" horiz-adv-x="305" 
 />
    <glyph glyph-name="space" unicode=" " horiz-adv-x="305" 
 />
    <glyph glyph-name="exclam" unicode="!" horiz-adv-x="332" 
d="M49 111q0 52 38.5 84t78.5 32q25 0 53 -14t46 -42t18 -62q0 -54 -36 -89q-35 -32 -83 -32q-49 0 -84 36q-31 34 -31 87zM78 250l-23 451h222l-21 -451h-178z" />
    <glyph glyph-name="quotedbl" unicode="&#x22;" horiz-adv-x="332" 
d="M6 430v271h129v-271h-129zM197 430l2 271h127v-271h-129z" />
    <glyph glyph-name="numbersign" unicode="#" 
d="M100 0l27 189h-86l4 104h96l15 115h-86l4 104h96l25 189h118l-28 -189h92l27 189h116l-26 -189h74l-2 -104h-87l-16 -115h76l-4 -104h-86l-27 -189h-115l25 189h-90l-27 -189h-115zM348 293l15 115h-92l-15 -115h92z" />
    <glyph glyph-name="dollar" unicode="$" 
d="M236 0h-164v199h151q62 0 62 30q0 23 -39 52q-55 38 -92.5 74t-57.5 75.5t-20 90.5q0 74 46.5 119.5t113.5 52.5v86h102v-78h174v-197h-160q-16 0 -26 -4.5t-13 -17.5q0 -16 33 -41q82 -62 115.5 -91t56.5 -74q21 -38 21 -96q0 -66 -59 -119q-55 -47 -142 -55v-84h-102
v78z" />
    <glyph glyph-name="percent" unicode="%" horiz-adv-x="869" 
d="M49 521q0 24 4.5 45.5t14.5 43.5q21 44 67 73.5t103 29.5q51 0 93 -26q40 -23 66.5 -65.5t26.5 -84.5q0 -93 -55 -145t-137 -52q-72 0 -126 50q-27 26 -42 58.5t-15 72.5zM191 527q0 -20 11.5 -32.5t33.5 -15.5q47 0 47 48q0 22 -14 33q-12 12 -33 12q-18 0 -31.5 -13
t-13.5 -32zM445 174q0 46 22.5 87t66.5 71.5t101 30.5q51 0 93 -24.5t68 -67t26 -89.5t-15 -82t-45 -62q-56 -50 -129 -50t-126.5 53.5t-61.5 132.5zM588 174q0 -41 45 -47q18 0 33.5 12.5t15.5 34.5q0 21 -13 34t-34 13q-19 0 -33 -12.5t-14 -34.5zM148 -12l475 725h100
l-477 -725h-98z" />
    <glyph glyph-name="ampersand" unicode="&#x26;" horiz-adv-x="797" 
d="M516 47q-95 -57 -200 -57q-118 0 -201.5 73.5t-83.5 190.5q0 38 9.5 70t29.5 64q35 56 88 89q-33 27 -50.5 56t-17.5 61q0 45 45.5 76t128.5 31h293v-181h-184l162 -196q16 34 16 57q0 34 -18 66l164 86q21 -37 32 -75t11 -79q0 -105 -82 -203l143 -174h-250zM387 205
l-108 129q-18 -14 -28.5 -31.5t-10.5 -36.5q0 -29 25.5 -53t60.5 -24q35 3 61 16z" />
    <glyph glyph-name="quotesingle" unicode="'" horiz-adv-x="314" 
d="M64 465l51 236h158l-95 -236h-114z" />
    <glyph glyph-name="parenleft" unicode="(" horiz-adv-x="406" 
d="M283 -213q-74 68 -127 154t-79 177q-12 44 -20 93t-8 94q0 49 7 95t20 93q26 89 77 172.5t126 152.5l98 -117q-77 -79 -116.5 -177t-39.5 -213q0 -117 45 -227t115 -180z" />
    <glyph glyph-name="parenright" unicode=")" horiz-adv-x="406" 
d="M125 816q51 -45 100 -113t75.5 -129t41.5 -134t15 -143q0 -142 -58 -274.5t-170 -235.5l-100 117q53 56 88 120q32 60 49.5 130.5t17.5 138.5q0 120 -42.5 228t-114.5 180z" />
    <glyph glyph-name="asterisk" unicode="*" horiz-adv-x="520" 
d="M150 510l-89 37l68 117l78 -59l-14 96h137l-14 -96l77 57l68 -117l-88 -37l88 -37l-68 -117l-77 60l12 -98h-137l14 98l-78 -60l-68 119z" />
    <glyph glyph-name="plus" unicode="+" horiz-adv-x="600" 
d="M234 184h-181v132h181v182h133v-182h182v-132h-182v-182h-133v182z" />
    <glyph glyph-name="comma" unicode="," horiz-adv-x="305" 
d="M18 -70l50 291h198l-96 -291h-152z" />
    <glyph glyph-name="hyphen" unicode="-" horiz-adv-x="389" 
d="M57 182v138h275v-138h-275z" />
    <glyph glyph-name="period" unicode="." horiz-adv-x="305" 
d="M35 113q0 53 34.5 82.5t82.5 29.5q51 0 84 -29q35 -27 35 -83q0 -30 -7 -50.5t-26 -38.5q-35 -32 -86 -32q-47 0 -82 32.5t-35 88.5z" />
    <glyph glyph-name="slash" unicode="/" horiz-adv-x="443" 
d="M-4 -12l318 725h135l-318 -725h-135z" />
    <glyph glyph-name="zero" unicode="0" 
d="M43 244v215q0 104 68 179t198 75q85 0 143 -35t87 -95t29 -134v-189q0 -125 -69.5 -198.5t-191.5 -73.5q-133 0 -202 78q-62 73 -62 178zM350 254v199q0 65 -43 65q-47 0 -47 -63v-215q0 -54 51 -54q39 0 39 68z" />
    <glyph glyph-name="one" unicode="1" 
d="M219 0v527h-82v174h299v-701h-217z" />
    <glyph glyph-name="two" unicode="2" 
d="M375 189h193v-189h-447q-30 0 -53.5 22.5t-26.5 55.5q3 33 31 68l260 290q14 16 14 37q0 19 -11 31q-9 12 -30 12t-33.5 -12.5t-15.5 -34.5q3 -27 29 -41l-135 -147q-56 35 -84.5 83t-28.5 111q0 59 31 113t92 88q33 18 67 27.5t74 9.5q65 0 113 -15.5t84 -50.5
q70 -70 70 -145v-12q0 -26 -1 -40.5t-7 -31.5q-9 -38 -35 -69q-26 -34 -61 -69z" />
    <glyph glyph-name="three" unicode="3" 
d="M57 0v197h218q31 0 44 13t13 34q0 39 -57 39h-148v112l156 109h-211v197h346q43 0 81 -33.5t38 -83.5q0 -88 -135 -166q48 -17 84 -48.5t53.5 -71t17.5 -83.5q0 -58 -28.5 -106.5t-84.5 -78.5t-128 -30h-259z" />
    <glyph glyph-name="four" unicode="4" 
d="M287 0v143h-168q-46 0 -76.5 30t-30.5 71q0 24 6.5 45t20.5 43l213 369h205l-242 -390h92v82l191 310v-394h80v-164h-80v-145h-211z" />
    <glyph glyph-name="five" unicode="5" 
d="M78 0v197h188q25 0 37.5 12t12.5 29q0 18 -14 31q-12 14 -36 14h-180v418h410v-191h-203v-43q44 0 76 -6.5t62 -23.5q58 -31 88 -86t30 -117q0 -30 -7 -59t-22 -56q-28 -52 -88 -85.5t-143 -33.5h-211z" />
    <glyph glyph-name="six" unicode="6" 
d="M244 701h236l-212 -433q-5 -11 -10 -38q0 -48 56 -48q19 0 31 15t12 33q0 21 -13 37t-37 16l95 190q84 -36 125 -97.5t41 -133.5q0 -64 -32 -122.5t-88.5 -95t-125.5 -36.5q-122 0 -197.5 73t-75.5 177q0 35 9.5 72.5t27.5 74.5z" />
    <glyph glyph-name="seven" unicode="7" 
d="M111 0l190 512h-237v189h299q47 0 78.5 -3t55.5 -11q44 -12 44 -70q0 -25 -12 -64l-189 -553h-229z" />
    <glyph glyph-name="eight" unicode="8" 
d="M131 398q-26 18 -42 52q-8 18 -12.5 36.5t-4.5 36.5q0 79 58.5 134.5t178.5 55.5q116 0 171 -55t55 -133q0 -89 -56 -127q40 -21 63.5 -70t23.5 -105q0 -98 -68.5 -166.5t-204.5 -68.5q-115 0 -182.5 72.5t-67.5 166.5q0 115 88 171zM260 494q0 -21 13 -34q6 -5 14 -8
t20 -3q16 0 32 13t16 32q0 20 -14.5 33.5t-35.5 13.5q-45 0 -45 -47zM252 234q0 -19 17 -32.5t40 -13.5q18 0 34 14.5t16 33.5q0 23 -15 39t-37 16t-38.5 -15.5t-16.5 -41.5z" />
    <glyph glyph-name="nine" unicode="9" 
d="M139 8l207 408q11 22 11 47q0 57 -50 57q-24 0 -39 -15t-18 -36q0 -41 55 -57l-86 -180q-57 19 -93 53t-55.5 80.5t-19.5 91.5q0 98 68 177t178 79q88 0 150 -33t91.5 -91t29.5 -126q0 -32 -7 -63t-22 -62l-164 -330h-236z" />
    <glyph glyph-name="colon" unicode=":" horiz-adv-x="305" 
d="M33 398q0 53 34.5 82.5t82.5 29.5q25 0 46.5 -7t38.5 -22q35 -29 35 -83q0 -56 -35 -89.5t-85 -33.5q-45 0 -81 33.5t-36 89.5zM33 115q0 51 34.5 81.5t82.5 30.5q50 0 85 -30t35 -82q0 -56 -34.5 -88.5t-85.5 -32.5q-47 0 -82 32.5t-35 88.5z" />
    <glyph glyph-name="semicolon" unicode=";" horiz-adv-x="305" 
d="M35 395q0 57 35 88t76 31q26 0 47.5 -7.5t39.5 -23.5q38 -32 38 -88q0 -59 -34.5 -90.5t-86.5 -31.5q-45 0 -80 32q-35 35 -35 90zM18 -72l48 293h198l-94 -293h-152z" />
    <glyph glyph-name="less" unicode="&#x3c;" horiz-adv-x="600" 
d="M201 252l350 -145v-130l-500 212v124l500 212v-130l-342 -143h-8z" />
    <glyph glyph-name="equal" unicode="=" horiz-adv-x="600" 
d="M49 74v133h504v-133h-504zM49 293v135h504v-135h-504z" />
    <glyph glyph-name="greater" unicode="&#x3e;" horiz-adv-x="600" 
d="M396 252l-345 143v130l500 -212v-124l-500 -212v130z" />
    <glyph glyph-name="question" unicode="?" horiz-adv-x="520" 
d="M139 111q0 51 31 81q16 16 35.5 24.5t42.5 8.5q27 0 48 -6.5t41 -22.5q38 -30 38 -85q0 -57 -35 -89t-84 -32q-47 0 -83 33q-34 34 -34 88zM164 252v186h74q51 0 51 33q0 15 -12.5 29t-30.5 14q-26 0 -47 -37l-187 74q18 47 57.5 84.5t94 58.5t109.5 21q63 0 118 -30.5
t88 -84t33 -118.5q0 -69 -40 -123t-120 -72v-35h-188z" />
    <glyph glyph-name="at" unicode="@" horiz-adv-x="801" 
d="M314 350l-1 -11l-2 -13q0 -36 23.5 -56t54.5 -20q18 0 32.5 6.5t32.5 20.5q26 23 32 69q3 33 -18 57t-52 27q-33 0 -62.5 -19t-39.5 -61zM523 525h92l-47 -248q-1 -4 -1 -8v-6q0 -26 21 -29q28 0 54 43.5t26 117.5q0 73 -35.5 125t-94.5 76q-25 11 -58.5 16t-71.5 5
q-31 0 -62.5 -8.5t-63.5 -24.5q-59 -30 -95.5 -90.5t-36.5 -153.5q0 -127 86 -192q44 -32 93.5 -49t108.5 -17q105 0 175 53h110q-56 -80 -143 -116q-42 -16 -87 -22.5t-104 -6.5q-42 0 -85.5 13t-87.5 38q-81 45 -132 127t-51 178t49.5 181t138 135.5t195.5 50.5
q93 0 176.5 -38.5t132.5 -113.5q24 -35 33.5 -77t9.5 -99q0 -35 -12.5 -66t-35.5 -63q-40 -54 -97 -85q-27 -14 -55 -23t-50 -9q-63 0 -63 50q-19 -25 -42 -37.5t-56 -12.5q-62 0 -112 55q-46 50 -46 130q0 47 16 85.5t46 67.5q59 56 135 56q79 0 118 -54z" />
    <glyph glyph-name="A" unicode="A" horiz-adv-x="631" 
d="M47 0v445q0 107 72.5 187.5t194.5 80.5q36 0 65 -6t62 -22q62 -29 102.5 -92.5t40.5 -153.5v-439h-219v215h-66v178h66v66q0 25 -14 39t-37 14q-20 0 -34 -14t-14 -39v-459h-219z" />
    <glyph glyph-name="B" unicode="B" horiz-adv-x="631" 
d="M47 0v471q0 69 30 123t91 85q31 15 66.5 24.5t72.5 9.5q80 0 136.5 -29t86 -81t29.5 -107q0 -72 -43 -115q41 -24 65 -70t24 -98q0 -83 -57.5 -148t-149.5 -65h-101v186q40 0 58 15t18 33q0 23 -19 36q-9 6 -21.5 8.5t-35.5 2.5v155q24 0 36 12.5t13 28.5q0 15 -12 28
t-31 13q-26 0 -31.5 -19.5t-5.5 -72.5v-426h-219z" />
    <glyph glyph-name="C" unicode="C" horiz-adv-x="520" 
d="M486 0h-105q-112 0 -189 49t-118 129q-20 39 -30.5 82t-10.5 88q0 44 11 88t31 84q39 80 118.5 130.5t191.5 50.5h101v-201h-70q-73 0 -116 -44q-21 -21 -32.5 -48.5t-11.5 -57.5q0 -60 46 -104.5t120 -44.5l64 -2v-199z" />
    <glyph glyph-name="D" unicode="D" horiz-adv-x="668" 
d="M55 0v701h252q94 0 168 -49.5t117 -132t43 -165.5q0 -99 -40.5 -179.5t-117.5 -127.5t-172 -47v201q44 0 75.5 40.5t31.5 108.5q0 79 -39 117q-19 18 -43.5 25.5t-58.5 7.5v-500h-216z" />
    <glyph glyph-name="E" unicode="E" horiz-adv-x="537" 
d="M500 0h-113q-80 0 -147 30t-112.5 83.5t-70.5 118.5q-20 60 -20 131q0 86 43 164t122 126t183 48h115v-187h-78q-111 0 -145 -80h223v-168h-223q9 -30 44 -55q38 -25 91 -25h88v-186z" />
    <glyph glyph-name="F" unicode="F" horiz-adv-x="480" 
d="M47 0v451q0 250 244 250h166v-195h-113q-48 0 -64 -20q-14 -20 -14 -66h191v-180h-193l2 -240h-219z" />
    <glyph glyph-name="G" unicode="G" horiz-adv-x="797" 
d="M521 262h-152v170h399q0 -152 -51.5 -253t-134.5 -145q-41 -22 -84.5 -34t-89.5 -12q-87 0 -175 43t-142 126q-27 42 -40.5 89t-13.5 102l2 27q0 53 17 102q14 42 43 84q51 75 130 112.5t167 37.5q167 0 290 -111l-155 -145q-55 55 -123 55q-40 0 -74 -20.5t-56 -60
t-22 -87.5q0 -63 46 -108q24 -22 49.5 -33.5t56.5 -11.5q77 0 113 73z" />
    <glyph glyph-name="H" unicode="H" horiz-adv-x="648" 
d="M53 0v701h220v-244h102v244h221v-701h-221v275h-102v-275h-220z" />
    <glyph glyph-name="I" unicode="I" horiz-adv-x="314" 
d="M49 0v701h221v-701h-221z" />
    <glyph glyph-name="J" unicode="J" horiz-adv-x="463" 
d="M21 0v201h47h12q39 0 59.5 3t30.5 17.5t10 46.5v433h216v-467q0 -64 -27 -117t-85 -86q-28 -15 -61 -23t-75 -8h-127z" />
    <glyph glyph-name="K" unicode="K" horiz-adv-x="631" 
d="M53 0v699h217v-250q15 -4 25.5 19t20.5 59l59 172h219l-55 -170q-10 -31 -18.5 -54t-15.5 -36q-14 -30 -40 -48q19 -3 44.5 -18.5t46 -43.5t20.5 -71v-258h-219v236q0 31 -21.5 40t-65.5 9v-285h-217z" />
    <glyph glyph-name="L" unicode="L" horiz-adv-x="443" 
d="M449 0h-201q-88 0 -143.5 60.5t-55.5 158.5v482h219v-441q0 -61 70 -61h111v-199z" />
    <glyph glyph-name="M" unicode="M" horiz-adv-x="869" 
d="M35 0l45 541q0 46 10.5 78.5t30.5 53.5q35 40 108 40q72 0 103 -24t43 -74l61 -236l52 215q13 53 35.5 79t40.5 30.5t40 7t42 2.5q130 0 143 -149l47 -564h-211l-25 418l-88 -361q-6 -27 -28 -43t-50 -16q-25 0 -46 14t-27 37l-91 369l-24 -418h-211z" />
    <glyph glyph-name="N" unicode="N" horiz-adv-x="686" 
d="M55 0v598q0 53 35 84t82 31q85 0 125 -80l117 -227v295h217v-590q0 -60 -32.5 -92.5t-82.5 -32.5q-39 0 -75.5 22t-55.5 62l-114 223v-293h-216z" />
    <glyph glyph-name="O" unicode="O" horiz-adv-x="797" 
d="M37 355q0 44 10 83t34 83q43 82 125 137q41 27 87.5 41t102.5 14q105 0 187.5 -49t129.5 -134.5t47 -183.5q0 -77 -30 -142t-81 -112t-117 -76q-34 -14 -64.5 -21t-65.5 -7q-48 0 -92 10.5t-86 33.5q-84 47 -135.5 131t-51.5 192zM260 346q0 -63 40 -99q21 -19 44 -28.5
t51 -9.5q58 0 100 37t42 104t-40 102.5t-99 35.5q-56 0 -97 -38t-41 -104z" />
    <glyph glyph-name="P" unicode="P" horiz-adv-x="574" 
d="M49 0v436q0 113 60 193q30 39 76.5 61.5t103.5 22.5q60 0 105 -12.5t85 -44.5q79 -62 89 -176q0 -63 -12 -108t-43 -84q-64 -79 -202 -79l-16 2v193q33 -3 51.5 15.5t18.5 41.5q0 49 -47 49q-28 0 -39 -14t-11 -60v-436h-219z" />
    <glyph glyph-name="Q" unicode="Q" horiz-adv-x="797" 
d="M291 0q-71 19 -130 73t-95 130q-16 36 -23.5 76t-7.5 84q0 48 14 91.5t42 86.5q49 79 132.5 125.5t172.5 46.5q60 0 123.5 -21.5t115.5 -65.5t86 -110q19 -37 29 -72.5t10 -74.5q0 -73 -14 -126.5t-51 -99.5q-73 -92 -199 -143v-96h-172v391h164v-35q41 27 41 90
q0 54 -37 97t-103 43q-63 0 -100 -41t-37 -94q0 -27 9.5 -50t29.5 -45v-260z" />
    <glyph glyph-name="R" unicode="R" 
d="M49 0v447q0 88 34 147t93 89t133 30q121 0 188 -67t67 -154q0 -44 -16.5 -79t-51.5 -58q37 -10 58.5 -45.5t21.5 -86.5v-223h-219v184q0 39 -13 48q-5 3 -11 6q-15 6 -36 6v170q68 0 68 51q0 23 -14 38q-12 15 -37 15q-29 0 -38.5 -21t-9.5 -61v-436h-217z" />
    <glyph glyph-name="S" unicode="S" horiz-adv-x="500" 
d="M23 0v199h163q48 0 48 28q0 23 -33 52l-72 63l-29.5 26.5t-27.5 28.5q-24 27 -35.5 54.5t-11.5 62.5q0 105 71 146t148 41h217v-197h-145q-47 0 -52 -24q3 -15 23 -31l75 -57q39 -28 63 -53t42 -58q10 -18 15.5 -35.5t5.5 -36.5q0 -40 -5.5 -68t-22.5 -51
q-33 -44 -96 -67t-126 -23h-215z" />
    <glyph glyph-name="T" unicode="T" horiz-adv-x="443" 
d="M113 0v500h-115v199h449v-199h-117v-500h-217z" />
    <glyph glyph-name="U" unicode="U" horiz-adv-x="631" 
d="M41 701h219v-465q0 -44 49 -50q50 0 50 50v465h217v-465q0 -74 -34.5 -129.5t-96 -87t-136.5 -31.5q-42 0 -74.5 7t-66.5 25q-60 32 -93.5 89t-33.5 125v467z" />
    <glyph glyph-name="V" unicode="V" horiz-adv-x="594" 
d="M4 701h225l68 -439l70 439h223l-125 -574q-12 -60 -45.5 -99.5t-122.5 -39.5q-76 0 -111.5 28.5t-52.5 96.5z" />
    <glyph glyph-name="W" unicode="W" horiz-adv-x="926" 
d="M51 701h219v-465q0 -41 39 -47q46 0 46 55v457h217v-461q0 -50 41 -54q23 0 35 12t12 34v469h217v-476q0 -72 -35 -125.5t-93 -81.5t-120 -28q-101 0 -164 67q-58 -67 -166 -67q-95 0 -171.5 63t-76.5 168v480z" />
    <glyph glyph-name="X" unicode="X" horiz-adv-x="631" 
d="M35 0v199q73 0 122.5 35t49.5 112q0 49 -23 85q-20 35 -60.5 55t-88.5 20v195h70q84 0 128.5 -24.5t82.5 -74.5q43 59 98 80q57 19 115 19h69v-195q-94 0 -133 -45t-39 -106q0 -81 44 -118q23 -19 54.5 -29.5t73.5 -10.5v-197h-71q-69 0 -117.5 22t-93.5 76
q-45 -51 -94 -74.5t-107 -23.5h-80z" />
    <glyph glyph-name="Y" unicode="Y" horiz-adv-x="557" 
d="M170 0v246q-71 12 -108 64t-37 122v269h219v-246q0 -27 31 -31q15 1 26.5 9.5t11.5 19.5v248h218v-269q0 -51 -18.5 -89.5t-50.5 -63t-75 -33.5v-246h-217z" />
    <glyph glyph-name="Z" unicode="Z" horiz-adv-x="537" 
d="M266 500h-221v201h324q86 0 123 -38.5t37 -92.5q0 -29 -7 -52.5t-22 -40.5l-221 -276h250v-201h-371q-72 0 -113 41.5t-41 95.5q0 47 29 84z" />
    <glyph glyph-name="bracketleft" unicode="[" horiz-adv-x="389" 
d="M90 -172l2 943h252v-119h-90v-705h90v-119h-254z" />
    <glyph glyph-name="backslash" unicode="\" horiz-adv-x="277" 
d="M221 -12l-297 725h133l298 -725h-134z" />
    <glyph glyph-name="bracketright" unicode="]" horiz-adv-x="389" 
d="M299 -172h-252v119h88v705h-88v119l252 2v-945z" />
    <glyph glyph-name="asciicircum" unicode="^" horiz-adv-x="600" 
d="M301 584l-112 -248h-132l173 365h139l174 -365h-133z" />
    <glyph glyph-name="underscore" unicode="_" horiz-adv-x="500" 
d="M0 -74h500v-51h-500v51z" />
    <glyph glyph-name="grave" unicode="`" horiz-adv-x="277" 
d="M-29 605l35 127l236 -119l-13 -52z" />
    <glyph glyph-name="a" unicode="a" 
d="M352 191v-197l-59 -4q-114 0 -188 74.5t-74 187.5q0 61 23 111.5t59 83t88 50.5q23 8 48 11.5t56 3.5q45 0 83 -11.5t71 -34.5q61 -42 91 -111.5t30 -147.5v-207h-203v250q0 21 -9.5 36.5t-27.5 24.5t-35 9q-29 0 -51 -17.5t-22 -48.5q0 -33 18 -53t49 -23q27 3 53 13z
" />
    <glyph glyph-name="b" unicode="b" 
d="M37 699h201v-439q0 -33 18.5 -57.5t54.5 -24.5q33 0 52 20q10 11 15 23t5 29q0 31 -21.5 51.5t-50.5 20.5q-23 0 -51 -11v199l54 4q76 0 133 -31t91 -89.5t34 -135.5q0 -83 -36.5 -144.5t-95.5 -93.5t-126 -32q-130 0 -203.5 87.5t-73.5 225.5v398z" />
    <glyph glyph-name="c" unicode="c" horiz-adv-x="426" 
d="M395 0h-124q-101 0 -171.5 75.5t-70.5 174.5q0 64 30.5 120.5t86.5 93t125 36.5h124v-172h-69q-94 0 -94 -78q0 -36 23 -58q23 -20 61 -20h79v-172z" />
    <glyph glyph-name="d" unicode="d" 
d="M373 701h201v-406q0 -92 -30.5 -159.5t-95.5 -107.5q-33 -20 -68.5 -30t-80.5 -10q-72 0 -131.5 33.5t-94.5 95.5q-17 31 -26.5 66t-9.5 73l2 5q0 118 69.5 184.5t182.5 66.5h33q18 -3 28 -4v-195q-29 9 -49 9q-33 0 -53.5 -22t-20.5 -56q0 -27 21 -45t51 -21
q29 0 50.5 19.5t21.5 56.5v447z" />
    <glyph glyph-name="e" unicode="e" horiz-adv-x="594" 
d="M561 320l-250 -138l-57 101l98 55q-21 21 -49 21q-31 0 -57.5 -27.5t-26.5 -65.5q0 -51 30 -82.5t71 -31.5q33 0 65 17.5t62 51.5l112 -114q-42 -54 -111 -84.5t-145 -30.5q-67 0 -128 27t-100 84q-38 60 -38 139q0 82 36.5 144t95.5 95t122 33t116 -24t92 -66t62 -104z
" />
    <glyph glyph-name="f" unicode="f" horiz-adv-x="369" 
d="M37 0v492q0 60 22 109t62 75q19 11 43 18t51 7h142v-166h-74q-27 0 -36.5 -8.5t-12.5 -26.5l2 -6h121v-172h-121v-322h-199z" />
    <glyph glyph-name="g" unicode="g" horiz-adv-x="594" 
d="M332 195v-181q-30 -14 -72 -14q-90 0 -159.5 69t-69.5 191q0 64 34.5 121.5t95.5 94t138 36.5q67 0 127.5 -34t98.5 -90t38 -120v-247q0 -123 -82 -179.5t-211 -56.5q-49 0 -94 6t-94 20v169q139 -25 168 -25q109 0 109 80v209q0 36 -19 55t-47 19q-24 0 -43.5 -17
t-19.5 -45q0 -26 18 -47q18 -18 49 -21q7 0 16 2t19 5z" />
    <glyph glyph-name="h" unicode="h" horiz-adv-x="557" 
d="M37 0v701h199v-224q49 35 108 35q45 0 85 -23q41 -21 66 -66.5t25 -106.5v-316h-202v277q0 25 -11.5 40t-29.5 15q-16 0 -27 -14q-12 -12 -12 -35v-283h-201z" />
    <glyph glyph-name="i" unicode="i" horiz-adv-x="277" 
d="M20 662q0 47 36.5 80t82.5 33q45 0 81 -32.5t36 -80.5q0 -51 -34.5 -86t-80.5 -35q-24 0 -44.5 7t-39.5 25q-37 35 -37 89zM39 0v500h199v-500h-199z" />
    <glyph glyph-name="j" unicode="j" horiz-adv-x="297" 
d="M33 660q0 48 38.5 82.5t82.5 34.5q47 0 82 -33.5t35 -79.5q0 -52 -35 -88q-18 -18 -38 -27.5t-44 -9.5q-47 0 -84 34t-37 87zM53 500h199v-475q0 -117 -54.5 -171.5t-142.5 -54.5h-110v174h75q33 0 33 64v463z" />
    <glyph glyph-name="k" unicode="k" horiz-adv-x="557" 
d="M37 0v701h199v-351q21 -3 31.5 16.5t25.5 69t23 64.5h204l-29 -78q-19 -56 -38 -87q-18 -33 -49 -48q58 -27 83 -61.5t25 -131.5v-94h-201v146q0 47 -75 47v-193h-199z" />
    <glyph glyph-name="l" unicode="l" horiz-adv-x="277" 
d="M39 0v701h199v-701h-199z" />
    <glyph glyph-name="m" unicode="m" horiz-adv-x="814" 
d="M307 0v277q0 55 -37 55q-36 0 -36 -57v-275h-199v307q0 101 64 153t151 52q49 0 93 -17t65 -46q23 28 66 45.5t92 17.5q87 0 151 -53.5t64 -153.5v-305h-201v268q0 66 -35 66q-37 0 -37 -61v-273h-201z" />
    <glyph glyph-name="n" unicode="n" horiz-adv-x="537" 
d="M31 0v303q0 64 29.5 111t83.5 72.5t124 25.5q104 0 170 -56.5t66 -152.5v-303h-199v270q0 58 -37 58q-36 0 -36 -51v-277h-201z" />
    <glyph glyph-name="o" unicode="o" horiz-adv-x="594" 
d="M33 252q0 68 34.5 128.5t93 96t128.5 35.5q77 0 138.5 -36t95.5 -94.5t34 -121.5q0 -83 -37.5 -146t-99 -96.5t-131.5 -33.5q-86 0 -171 72t-85 196zM232 252q0 -25 18 -44t43 -22q26 0 47 18t21 46q0 27 -20 45.5t-44 18.5t-44.5 -17.5t-20.5 -44.5z" />
    <glyph glyph-name="p" unicode="p" 
d="M37 -201v404q0 84 30.5 154t89.5 112.5t136 42.5q86 0 149.5 -35t96.5 -97.5t33 -137.5q0 -44 -15 -93t-51.5 -90t-96.5 -61q-38 -11 -83 -11q-26 0 -66 5v197q17 -8 45 -13q33 0 55 23q23 21 23 55t-20.5 52t-49.5 18q-30 0 -52.5 -22.5t-22.5 -65.5v-437h-201z" />
    <glyph glyph-name="q" unicode="q" 
d="M352 189v-197l-55 -2q-29 0 -55 4t-50 13q-47 17 -83.5 52.5t-54.5 83.5q-15 44 -15 117q0 57 20.5 102.5t61.5 80.5q78 69 182 69q71 0 132 -34t100 -104.5t39 -172.5v-402h-201v437q0 41 -20.5 63.5t-51.5 22.5q-29 0 -50.5 -18.5t-21.5 -51.5q0 -31 21 -51t55 -23
q27 3 47 11z" />
    <glyph glyph-name="r" unicode="r" horiz-adv-x="426" 
d="M35 0v500h192v-62q26 45 60 60q36 14 84 14h47v-172q-44 0 -76.5 -5t-57.5 -18q-48 -24 -48 -114l-2 -203h-199z" />
    <glyph glyph-name="s" unicode="s" horiz-adv-x="443" 
d="M29 0v168h121q39 0 39 18t-39 35q-119 46 -119 148q0 67 55 100q26 15 51.5 23t51.5 8h207v-160h-115q-18 0 -21 -12q3 -16 35 -31q119 -55 119 -154q0 -32 -10 -57.5t-33 -45.5q-46 -40 -131 -40h-211z" />
    <glyph glyph-name="t" unicode="t" horiz-adv-x="369" 
d="M31 658h199v-158h110v-172h-110v-98q0 -64 61 -64h49v-166h-111q-57 0 -94.5 15t-66.5 49q-18 25 -29 63q-8 38 -8 62v469z" />
    <glyph glyph-name="u" unicode="u" horiz-adv-x="537" 
d="M31 500h201v-283q0 -18 10 -30t26 -15q37 0 37 47v281h199v-289q0 -104 -66 -166q-31 -29 -75 -43t-99 -14q-101 0 -167 58.5t-66 162.5v291z" />
    <glyph glyph-name="v" unicode="v" horiz-adv-x="537" 
d="M14 502h199l57 -313l54 313h199l-101 -402q-12 -55 -56 -86.5t-98 -31.5q-53 0 -95.5 30.5t-57.5 87.5z" />
    <glyph glyph-name="w" unicode="w" horiz-adv-x="814" 
d="M33 500h201v-275q0 -59 36 -59q37 0 37 66v268h201v-275q0 -61 39 -61q33 0 33 59v277h201v-318q0 -61 -30.5 -103.5t-83 -65.5t-106.5 -23q-45 0 -86 15t-67 46q-25 -28 -69 -45.5t-93 -17.5q-85 0 -149 54t-64 155v303z" />
    <glyph glyph-name="x" unicode="x" horiz-adv-x="500" 
d="M37 0v172h49q31 0 48.5 23.5t17.5 54.5q0 32 -20 55q-18 23 -54 23h-41v172h59q53 0 88 -16q37 -15 66 -52q51 68 152 68h63v-172h-43q-33 0 -56 -24q-11 -12 -16.5 -25.5t-5.5 -32.5q0 -28 19 -51t53 -23h49v-172h-70q-42 0 -80.5 18t-64.5 50q-57 -68 -145 -68h-68z
" />
    <glyph glyph-name="y" unicode="y" horiz-adv-x="537" 
d="M170 0q-69 39 -103 82.5t-34 120.5v297h199v-283q0 -41 36 -47q37 0 37 51v279h199v-303q0 -71 -38 -121t-103 -76v-201h-193v201z" />
    <glyph glyph-name="z" unicode="z" horiz-adv-x="520" 
d="M490 0h-338q-61 0 -94 28.5t-33 69.5q0 47 41 86l161 148h-163v170h280q80 0 115 -29t35 -75q0 -20 -9 -44t-20 -34l-160 -152h185v-168z" />
    <glyph glyph-name="braceleft" unicode="{" horiz-adv-x="389" 
d="M14 355q49 0 73 19t24 44v225q0 52 43.5 91t89.5 39h102v-91q-73 0 -73 -55v-217q0 -56 -30.5 -77t-80.5 -26v-4q27 0 48.5 -8t35.5 -22q27 -26 27 -84v-205q0 -62 53 -62h20v-94h-96q-51 0 -95 38t-44 111v189q0 46 -19.5 64.5t-77.5 25.5v99z" />
    <glyph glyph-name="bar" unicode="|" horiz-adv-x="223" 
d="M45 0v701h133v-701h-133z" />
    <glyph glyph-name="braceright" unicode="}" horiz-adv-x="389" 
d="M227 303q-56 0 -84 27t-28 78v205q0 45 -13.5 59t-56.5 14v89h86q69 0 107.5 -40t38.5 -98v-213q0 -42 26 -56q24 -11 74 -20v-98q-98 0 -98 -62v-213q0 -69 -47.5 -106t-92.5 -37h-94v92h16q32 0 44 15.5t12 60.5v197q0 48 27 71.5t83 30.5v4z" />
    <glyph glyph-name="asciitilde" unicode="~" horiz-adv-x="600" 
d="M68 270q46 85 125 85q42 0 118 -34t97 -34q42 0 86 72l37 -129q-58 -85 -123 -85q-14 0 -22 1t-27.5 8t-53.5 24.5t-63 26.5q-11 4 -25 6t-28 2q-11 0 -22 -4t-20 -11q-17 -12 -42 -55z" />
    <glyph glyph-name="florin" unicode="&#x192;" 
d="M182 268h-104l16 158h103l8 94q0 88 56.5 134.5t160.5 46.5q49 0 129 -15l-16 -174q-35 19 -66 19q-53 0 -59 -43l-8 -62h94l-17 -158h-94l-31 -307q-8 -89 -79.5 -132.5t-165.5 -43.5q-23 0 -41.5 2t-44.5 8l16 166l51 -4q37 0 52.5 15.5t15.5 50.5z" />
    <glyph glyph-name="quotedblbase" unicode="&#x201e;" horiz-adv-x="443" 
d="M39 -72l22 236h158l-67 -236h-113zM232 -72l22 236h156l-64 -236h-114z" />
    <glyph glyph-name="ellipsis" unicode="&#x2026;" horiz-adv-x="1000" 
d="M715 111q0 52 36 83t83 31q48 0 82.5 -29.5t34.5 -84.5t-34 -89q-34 -32 -85 -32q-48 0 -82.5 32t-34.5 89zM381 109q0 54 36 85t83 31q49 0 84 -29.5t35 -86.5q0 -56 -35.5 -87.5t-85.5 -31.5q-47 0 -82 31.5t-35 87.5zM47 109q0 54 36 86t85 32q47 0 83 -31t36 -87
q0 -55 -34 -88q-36 -31 -87 -31q-49 0 -84 31.5t-35 87.5z" />
    <glyph glyph-name="dagger" unicode="&#x2020;" horiz-adv-x="500" 
d="M186 322l-153 -39v221l153 -41l-61 238h250l-61 -238l153 41v-221l-153 39l38 -86q-25 -73 -38 -136q-6 -36 -8.5 -58.5t-2.5 -51.5q0 -9 1 -29.5t4 -52.5l5 -111h-124l4 142q0 100 -11.5 169.5t-35.5 127.5l14 31z" />
    <glyph glyph-name="daggerdbl" unicode="&#x2021;" horiz-adv-x="500" 
d="M191 361l-160 -41v203l162 -43l-56 221h228l-56 -221l162 41v-201l-162 41q9 -54 37 -113q-24 -58 -35 -113l160 41v-201l-160 43l54 -223h-228l56 221l-162 -41v201l160 -41q-9 60 -35 113q26 49 35 113z" />
    <glyph glyph-name="circumflex" unicode="&#x2c6;" horiz-adv-x="277" 
d="M141 604l-41 -45h-120l163 175l162 -175h-119z" />
    <glyph glyph-name="perthousand" unicode="&#x2030;" horiz-adv-x="1168" 
d="M49 521q0 37 10 68t35 63q49 61 131 61q70 0 121.5 -54.5t51.5 -121.5q0 -93 -53 -145q-26 -26 -56 -39t-68 -13q-69 0 -119 50q-26 26 -39.5 58t-13.5 73zM182 527q0 -22 11 -33.5t30 -14.5q17 0 31 13t14 35t-14 33q-12 12 -31 12q-15 0 -28 -12.5t-13 -32.5zM418 174
q0 70 48.5 129.5t127.5 59.5q45 0 85.5 -24.5t64.5 -66.5t24 -90q0 -61 -26.5 -105.5t-66.5 -66.5t-83 -22q-66 0 -116 53t-58 133zM549 174q0 -41 43 -47q18 0 31.5 12.5t13.5 34.5q0 20 -12.5 33.5t-30.5 13.5t-31.5 -13t-13.5 -34zM143 -12l441 725h92l-444 -725h-89z
M930 178q0 -41 41 -47q17 0 31 13t14 36q0 21 -12.5 33t-30.5 12t-30.5 -12.5t-12.5 -34.5zM797 174q0 73 47 132t131 59q69 0 120 -54.5t51 -122.5q0 -91 -50.5 -144.5t-126.5 -53.5q-68 0 -119 52q-26 27 -39.5 59.5t-13.5 72.5z" />
    <glyph glyph-name="guilsinglleft" unicode="&#x2039;" horiz-adv-x="314" 
d="M176 250l119 -127h-154l-120 127l120 127h154z" />
    <glyph glyph-name="OE" unicode="&#x152;" horiz-adv-x="1020" 
d="M646 78q-103 -88 -240 -88q-91 0 -174 42t-135 123.5t-52 184.5q0 123 52.5 205t138.5 124t178 42q146 0 225 -88q41 37 102.5 57.5t115.5 20.5h118v-185h-88q-63 0 -96 -23q-33 -21 -39 -57h223v-168h-223q30 -80 129 -80h94v-188h-112q-137 0 -217 78zM268 344
q0 -54 46 -97q40 -36 94 -36q49 0 94 37q21 18 33 40.5t12 51.5q0 37 -8.5 62.5t-29.5 46.5q-41 41 -97 41q-52 0 -99 -39t-47 -99z" />
    <glyph glyph-name="c141" horiz-adv-x="797" 
d="M371 213l8 -2l11 -1l8 -1q32 0 66 17.5t54.5 49.5t20.5 74q0 31 -9.5 51.5t-19.5 30.5zM281 273l137 215q-67 0 -113.5 -37t-46.5 -101q0 -23 5 -38q2 -7 4 -12.5t7 -14.5zM254 20l-41 -65h-133l78 125q-48 41 -85 110q-19 36 -28.5 74.5t-9.5 81.5q0 44 9.5 83t30.5 84
q42 85 126 142.5t201 57.5q33 0 67.5 -7t69.5 -22l33 52h133l-70 -111q57 -50 91 -122.5t34 -152.5q0 -102 -51 -186t-137 -132q-81 -44 -174 -44q-36 0 -69.5 7t-74.5 25z" />
    <glyph glyph-name="c142" horiz-adv-x="574" 
d="M49 0v701h219v-84h45q76 0 132.5 -30.5t89.5 -87.5t33 -124q0 -125 -70 -190.5t-203 -65.5v192q27 0 48.5 12.5t21.5 35.5q0 59 -45 59q-52 0 -52 -59v-359h-219z" />
    <glyph glyph-name="c143" horiz-adv-x="723" 
d="M92 10v322h-55v166h55v39q0 71 62.5 123.5t175.5 52.5q70 0 126 -24t86 -66t30 -90q0 -58 -43 -101q78 -48 111 -90q17 -20 27.5 -50.5t10.5 -68.5q0 -47 -12.5 -83t-42.5 -68q-59 -62 -152 -62h-151v166q78 0 112.5 11t34.5 40q0 26 -17 45.5t-53 43.5l-28 20l-21 15
q-12 12 -16 38q0 19 27.5 55t27.5 58q0 21 -15.5 36t-37.5 15q-37 0 -37 -47v-496h-205z" />
    <glyph glyph-name="c144" horiz-adv-x="889" 
d="M346 234l-96 -35q-16 -6 -20 -25q0 -13 11 -20.5t30 -10.5l16 3l14 2q20 6 32.5 29t12.5 57zM432 459q67 53 164 53q54 0 105 -20t92 -63t62 -109l-248 -138l-58 99l99 59q-27 19 -56 19q-32 0 -55 -30q-12 -17 -17.5 -33t-5.5 -36l4 -24q5 -39 29.5 -60.5t67.5 -21.5
q39 0 70 17.5t55 51.5l115 -116q-45 -51 -115 -84t-146 -33q-101 0 -178 65q-33 -30 -82 -48.5t-102 -18.5q-70 0 -124.5 32.5t-66.5 88.5q0 11 -2 16l-2 18q0 52 33.5 87.5t81.5 50.5l157 55q-24 21 -61 21q-45 0 -102 -35l-107 123q51 33 108 51t111 18q101 0 174 -55z
" />
    <glyph glyph-name="quoteleft" unicode="&#x2018;" horiz-adv-x="314" 
d="M43 465l96 236h113l-53 -236h-156z" />
    <glyph glyph-name="quoteright" unicode="&#x2019;" horiz-adv-x="314" 
d="M64 465l51 236h158l-95 -236h-114z" />
    <glyph glyph-name="quotedblleft" unicode="&#x201c;" horiz-adv-x="443" 
d="M29 465l67 236h111l-19 -236h-159zM381 465h-158l66 236h111z" />
    <glyph glyph-name="quotedblright" unicode="&#x201d;" horiz-adv-x="443" 
d="M414 701l-66 -238h-112l20 238h158zM63 701h158l-67 -238h-111z" />
    <glyph glyph-name="bullet" unicode="&#x2022;" horiz-adv-x="500" 
d="M74 357q0 37 14.5 67t43.5 55q52 46 126 46q62 0 115 -50t53 -118q0 -82 -54 -132q-26 -24 -58 -37.5t-68 -13.5l-2 2q-23 0 -42 5.5t-43 19.5q-40 23 -62.5 61.5t-22.5 94.5z" />
    <glyph glyph-name="endash" unicode="&#x2013;" horiz-adv-x="500" 
d="M500 182h-500v136h500v-136z" />
    <glyph glyph-name="emdash" unicode="&#x2014;" horiz-adv-x="1000" 
d="M0 182v138h998h4v-138h-998h-4z" />
    <glyph glyph-name="tilde" unicode="&#x2dc;" horiz-adv-x="277" 
d="M-51 621q37 48 62 63.5t57 18.5q33 0 77 -19q23 -10 34.5 -14t23.5 -6q7 0 18 8l19 16l16 17l74 -60l-34.5 -38.5t-30.5 -28.5t-27.5 -16t-28.5 -5q-9 0 -19 0.5t-28 7.5l-45 19q-23 12 -35 12q-26 0 -55 -35z" />
    <glyph glyph-name="trademark" unicode="&#x2122;" horiz-adv-x="1000" 
d="M148 611h-113v90h346v-90h-113v-322h-120v322zM475 701h156l88 -238l90 238h156v-412h-108v270l-93 -270h-88l-92 270l-2 -270h-107v412z" />
    <glyph glyph-name="guilsinglright" unicode="&#x203a;" horiz-adv-x="314" 
d="M139 250l-119 127h154l119 -127l-119 -127h-154z" />
    <glyph glyph-name="oe" unicode="&#x153;" horiz-adv-x="926" 
d="M227 252q0 -29 17 -46q18 -15 45 -18q26 0 46 17t20 47t-18 45q-9 8 -19 12t-25 4q-25 0 -45.5 -16.5t-20.5 -44.5zM457 45q-70 -55 -166 -55q-72 0 -131.5 32t-98.5 94q-34 58 -34 144q0 53 20.5 98t60.5 82q78 72 185 72q90 0 164 -55q76 59 162 59q65 0 120.5 -28.5
t94 -75t45.5 -94.5l-246 -136l-57 99l100 57q-22 19 -55 19q-38 0 -60 -28q-11 -14 -17.5 -30t-6.5 -35l3 -21l3 -16q20 -75 94 -75q71 0 131 71l113 -116q-39 -46 -113.5 -81.5t-150.5 -35.5q-93 0 -160 55z" />
    <glyph glyph-name="c157" horiz-adv-x="594" 
d="M232 250q0 -27 21 -44.5t48 -17.5q21 0 40.5 16.5t19.5 45.5t-19 46.5t-45 17.5q-25 0 -45 -17t-20 -47zM117 61q-38 32 -62 83q-11 26 -17.5 53t-6.5 55q0 32 10.5 65.5t28.5 64.5q33 59 92 94.5t131 35.5q47 0 96 -16l35 61h125l-72 -116q84 -84 84 -191
q0 -104 -77 -182t-185 -78q-45 0 -90 16l-41 -67h-125z" />
    <glyph glyph-name="nonbreakingspace" unicode="&#xa0;" horiz-adv-x="500" 
 />
    <glyph glyph-name="exclamdown" unicode="&#xa1;" horiz-adv-x="332" 
d="M51 398q0 53 33.5 82.5t81.5 29.5q51 0 84 -29q35 -27 35 -83q0 -57 -35 -88q-18 -16 -39 -24.5t-45 -8.5q-46 0 -80.5 31.5t-34.5 89.5zM57 -199l19 449h180l23 -449h-222z" />
    <glyph glyph-name="cent" unicode="&#xa2;" 
d="M316 4q-99 24 -150 96q-23 35 -36 76.5t-13 87.5q0 24 6 48.5t20 50.5q25 49 69.5 85t103.5 48v80h84v-76h82v-172h-72q-90 0 -90 -78t92 -78h70v-172h-84v-70h-82v74z" />
    <glyph glyph-name="sterling" unicode="&#xa3;" 
d="M104 275h-98v153h98v56q0 96 67 163.5t198 67.5q26 0 55 -3t68 -11v-199q-67 14 -92 14q-46 0 -62 -20.5t-16 -52.5v-15h100v-153h-102q0 -35 -6 -51t-25 -36q16 0 22 -2q45 0 79 18q32 15 32 60h203q0 -130 -72 -197t-203 -67h-350v188h55q31 0 40 19.5t9 67.5z" />
    <glyph glyph-name="currency" unicode="&#xa4;" 
d="M305 473q-50 0 -82 -37t-32 -88q0 -47 31 -86q30 -35 85 -35q50 0 79.5 36.5t29.5 86.5q0 52 -29 87.5t-82 35.5zM96 494l-57 57l68 68l59 -58q60 43 139 43q83 0 138 -43l61 58l68 -68l-56 -57q41 -49 41 -144q0 -84 -41 -143l56 -57l-68 -70l-59 59
q-26 -20 -61.5 -31.5t-78.5 -11.5q-42 0 -77 11.5t-62 33.5l-59 -61l-70 70l59 57q-21 28 -33 64t-12 81q0 43 11.5 79t33.5 63z" />
    <glyph glyph-name="yen" unicode="&#xa5;" 
d="M197 0v154l-133 -2v114h131v56h-131v112h112q-40 70 -153 70v197h59q63 0 99 -9.5t63 -30.5q26 -18 61 -57q51 60 98 78.5t132 18.5h51v-197q-48 0 -87 -15.5t-63 -54.5h111v-112h-133v-56h133v-114h-133v-152h-217z" />
    <glyph glyph-name="brokenbar" unicode="&#xa6;" horiz-adv-x="186" 
d="M45 0v701h133v-701h-133z" />
    <glyph glyph-name="section" unicode="&#xa7;" 
d="M135 389q-34 22 -52.5 55t-18.5 79q0 37 11 65t32 49q81 76 239 76q44 0 181 -12v-189l-125 11q-52 0 -52 -21q0 -18 66 -56q70 -36 109.5 -68.5t46.5 -96.5q1 -8 1 -22q0 -95 -87 -154q61 -61 61 -138q0 -56 -31 -102q-70 -82 -268 -82q-68 0 -185 12v195
q76 -19 132 -19q69 0 69 25q0 17 -66.5 47.5t-112.5 72t-46 116.5q0 55 28.5 93.5t67.5 63.5zM336 217q6 6 6 15q0 10 -9.5 22.5t-25 21.5t-28.5 9q-14 0 -23 -19q0 -14 22 -35q21 -17 42 -20q9 2 11 2.5t5 3.5z" />
    <glyph glyph-name="dieresis" unicode="&#xa8;" horiz-adv-x="277" 
d="M-49 658q0 40 25.5 62t58.5 22q36 0 62 -23q26 -21 26 -61t-26 -65q-26 -23 -62 -23q-33 0 -58.5 23.5t-25.5 64.5zM158 660q0 35 25.5 58.5t60.5 23.5q37 0 60.5 -21.5t23.5 -60.5q0 -41 -25.5 -66.5t-58.5 -25.5q-31 0 -58.5 25.5t-27.5 66.5z" />
    <glyph glyph-name="copyright" unicode="&#xa9;" horiz-adv-x="801" 
d="M496 414q-10 59 -82 59q-41 0 -66 -31q-12 -16 -19 -36.5t-7 -44.5q0 -46 26.5 -85.5t69.5 -39.5q31 0 55.5 18t24.5 45h90q0 -57 -48 -105t-124 -48q-92 0 -147 62q-27 31 -41.5 69t-14.5 78q0 53 23.5 101.5t68.5 78t107 29.5q63 0 113.5 -36.5t60.5 -113.5h-90z
M402 619q-73 0 -131.5 -33.5t-92 -94.5t-33.5 -130q0 -127 75 -205q37 -38 83.5 -55t106.5 -17q106 0 176 78t70 186q0 53 -16.5 103t-49.5 86q-30 35 -79 59q-26 12 -51.5 17.5t-57.5 5.5zM400 713q104 0 189.5 -43.5t136.5 -127t51 -194.5q0 -83 -28 -147.5t-78.5 -110
t-115.5 -72.5q-38 -14 -70 -22t-67 -8q-54 0 -98.5 8.5t-90.5 29.5q-90 42 -148 125t-58 195l2 17q0 83 30.5 148.5t87.5 111.5q111 90 257 90z" />
    <glyph glyph-name="ordfeminine" unicode="&#xaa;" horiz-adv-x="367" 
d="M215 520v-118q-11 0 -16 -2l-23 -2q-70 0 -119 41.5t-49 117.5q0 72 52.5 115t121.5 43q75 0 128 -48.5t53 -141.5v-119h-133v151q0 18 -13 29.5t-35 11.5q-18 0 -32 -11q-5 -4 -9 -11.5t-4 -16.5q0 -41 47 -45z" />
    <glyph glyph-name="guillemotleft" unicode="&#xab;" horiz-adv-x="537" 
d="M398 252l120 -129h-155l-119 129l119 125h155zM176 252l119 -129h-154l-118 129l118 125h154z" />
    <glyph glyph-name="logicalnot" unicode="&#xac;" horiz-adv-x="600" 
d="M418 109v186h-367v135h500v-321h-133z" />
    <glyph glyph-name="registered" unicode="&#xae;" horiz-adv-x="801" 
d="M396 619q-108 0 -179.5 -76.5t-71.5 -181.5q0 -79 31 -141.5t89 -101.5q29 -18 61.5 -28t69.5 -10l3 2q83 0 139 38q56 35 86 96q15 29 23.5 63t8.5 67q0 80 -32.5 141.5t-95 96.5t-132.5 35zM396 713q74 0 141.5 -22.5t122 -69t87 -116t32.5 -159.5q0 -52 -13 -99
t-40 -88q-51 -80 -139.5 -124.5t-188.5 -44.5q-98 0 -186 45t-139 130q-25 42 -36.5 89.5t-11.5 108.5q0 58 14.5 104t45.5 89q57 78 142.5 117.5t168.5 39.5zM252 154v395h143q171 0 171 -117q0 -56 -29 -82t-82 -26l102 -170h-92l-88 164h-33v-164h-92zM344 389h84
q21 0 33 12t12 31t-12 33t-35 14h-82v-90z" />
    <glyph glyph-name="plusminus" unicode="&#xb1;" horiz-adv-x="600" 
d="M234 400v102h135v-102h182v-132h-182v-102h-135v102h-183v132h183zM51 0v135h500v-135h-500z" />
    <glyph glyph-name="twosuperior" unicode="&#xb2;" horiz-adv-x="365" 
d="M230 400h125v-115h-281q-59 0 -64 39q3 25 23 49q30 36 89 92l73 73q14 16 16 28q0 30 -29 30q-13 0 -21 -8q-9 -6 -9 -22q0 -14 20 -23l-90 -92q-36 31 -52 59t-16 66q0 61 51.5 99t118.5 38q75 0 123 -39t48 -108q0 -29 -18 -54t-50 -57z" />
    <glyph glyph-name="threesuperior" unicode="&#xb3;" horiz-adv-x="365" 
d="M29 705h223q30 0 54 -20.5t24 -55.5q0 -22 -17.5 -42t-68.5 -54q52 -12 76 -45.5t24 -71.5q0 -63 -49 -97t-111 -34h-161v115h141q9 0 22 7.5t13 22.5q0 8 -9 15.5t-26 9.5h-98v63l104 70l-141 2v115z" />
    <glyph glyph-name="acute" unicode="&#xb4;" horiz-adv-x="277" 
d="M55 561l-16 54l236 115l38 -125z" />
    <glyph glyph-name="mu" unicode="&#xb5;" horiz-adv-x="537" 
d="M305 502h201v-301q0 -119 -63 -168t-146 -49q-42 0 -65 8v-193h-199v703h199v-270q0 -52 39 -52q34 0 34 52v270z" />
    <glyph glyph-name="paragraph" unicode="&#xb6;" horiz-adv-x="619" 
d="M242 350q-91 0 -157.5 41.5t-66.5 139.5q0 170 240 170h322v-892h-121v802h-98v-802h-119v541z" />
    <glyph glyph-name="periodcentered" unicode="&#xb7;" horiz-adv-x="305" 
d="M31 252q0 48 36.5 82.5t80.5 34.5q26 0 46.5 -7t40.5 -24q38 -33 38 -86q0 -57 -41 -91q-19 -16 -40 -23t-46 -7q-44 0 -79.5 34.5t-35.5 86.5z" />
    <glyph glyph-name="periodcentered" unicode="&#x2219;" horiz-adv-x="305" 
d="M31 252q0 48 36.5 82.5t80.5 34.5q26 0 46.5 -7t40.5 -24q38 -33 38 -86q0 -57 -41 -91q-19 -16 -40 -23t-46 -7q-44 0 -79.5 34.5t-35.5 86.5z" />
    <glyph glyph-name="cedilla" unicode="&#xb8;" horiz-adv-x="277" 
d="M119 14h72l-11 -35q35 0 61.5 -27.5t26.5 -60.5q0 -21 -6.5 -38t-22.5 -34q-30 -32 -93 -32l-48 4v72q14 -4 23.5 -6t19.5 -2q45 0 45 28q0 27 -26 31q-21 -3 -27 -18l-43 24z" />
    <glyph glyph-name="onesuperior" unicode="&#xb9;" horiz-adv-x="365" 
d="M68 602v105h194v-422h-143v317h-51z" />
    <glyph glyph-name="ordmasculine" unicode="&#xba;" horiz-adv-x="355" 
d="M8 557q0 69 54 113q57 43 116 43q66 0 119 -42t53 -112q0 -69 -51 -115t-121 -46q-64 0 -117 45q-26 22 -39.5 50t-13.5 64zM139 557q0 -35 41 -39q41 0 41 41q0 14 -12 24.5t-29 10.5q-19 0 -30 -9.5t-11 -27.5z" />
    <glyph glyph-name="guillemotright" unicode="&#xbb;" horiz-adv-x="537" 
d="M141 252l-120 125h155l119 -125l-119 -129h-155zM363 252l-119 125h154l118 -125l-118 -129h-154z" />
    <glyph glyph-name="onequarter" unicode="&#xbc;" horiz-adv-x="916" 
d="M197 -12l371 725h102l-373 -725h-100zM33 602v105h194v-422h-143v317h-51zM684 0v84h-112q-31 0 -49 17t-21 44q3 27 19 52l139 221h133l-158 -232h60v48l125 186v-236h51v-98h-51v-86h-136z" />
    <glyph glyph-name="onehalf" unicode="&#xbd;" horiz-adv-x="916" 
d="M158 -12l401 725h101l-400 -725h-102zM33 602v105h194v-422h-143v317h-51zM746 115h125v-113h-281q-63 0 -63 39q3 28 22 47q34 39 106 108t74 87q0 15 -8 23q-7 5 -22 7q-13 0 -22 -8q-9 -6 -9 -22q0 -15 20 -25l-90 -92q-38 34 -53.5 61t-15.5 64q0 62 51.5 100.5
t120.5 38.5q75 0 122.5 -39.5t47.5 -107.5q0 -28 -19 -56t-49 -57z" />
    <glyph glyph-name="threequarters" unicode="&#xbe;" horiz-adv-x="916" 
d="M213 -12l400 725h100l-400 -725h-100zM682 4v82h-112q-30 0 -47.5 16.5t-20.5 43.5q3 26 18 51l140 223h131l-158 -232l60 -2v48l125 190v-227h51l2 -111h-53v-82h-136zM23 285v117h139q37 0 37 24q0 12 -9 21q-8 6 -24 8h-98v65l106 70h-145v115h225q26 0 51 -20.5
t25 -51.5q0 -52 -86 -98q48 -10 74 -44t26 -75q0 -50 -42.5 -90.5t-113.5 -40.5h-165z" />
    <glyph glyph-name="questiondown" unicode="&#xbf;" horiz-adv-x="520" 
d="M146 396q0 52 36 83t82 31q48 0 82.5 -28.5t34.5 -81.5q0 -29 -7 -50.5t-25 -38.5q-37 -34 -87 -34q-45 0 -80.5 31.5t-35.5 87.5zM170 248h185v-184h-70q-58 0 -62 -37q0 -15 14 -29t33 -14q33 0 52 41l188 -74q-36 -82 -104.5 -122t-147.5 -40q-62 0 -117 23t-82 61
q-22 32 -34.5 68.5t-12.5 76.5q0 67 42 125q39 54 116 72v33z" />
    <glyph glyph-name="Agrave" unicode="&#xc0;" horiz-adv-x="631" 
d="M47 0v445q0 107 72.5 187.5t194.5 80.5q36 0 65 -6t62 -22q62 -29 102.5 -92.5t40.5 -153.5v-439h-219v215h-66v178h66v66q0 25 -14 39t-37 14q-20 0 -34 -14t-14 -39v-459h-219z" />
    <glyph glyph-name="Aacute" unicode="&#xc1;" horiz-adv-x="631" 
d="M266 186v246q0 73 67 73h237v195h-263q-39 0 -72 -8.5t-67 -25.5q-61 -31 -91 -85t-30 -123v-458h351q92 0 149.5 65t57.5 148q0 52 -24 97q-11 22 -26.5 38.5t-38.5 32.5q-40 28 -96.5 41.5t-122.5 13.5v-155q21 0 34.5 -2t22.5 -9q19 -13 19 -36q0 -18 -18 -33t-58 -15
h-31z" />
    <glyph glyph-name="Acircumflex" unicode="&#xc2;" horiz-adv-x="631" 
d="M47 0v471q0 69 30 123t91 85q31 15 66.5 24.5t72.5 9.5q80 0 136.5 -29t86 -81t29.5 -107q0 -72 -43 -115q41 -24 65 -70t24 -98q0 -83 -57.5 -148t-149.5 -65h-101v186q40 0 58 15t18 33q0 23 -19 36q-9 6 -21.5 8.5t-35.5 2.5v155q24 0 36 12.5t13 28.5q0 15 -12 28
t-31 13q-26 0 -31.5 -19.5t-5.5 -72.5v-238v-94v-94h-219z" />
    <glyph glyph-name="Atilde" unicode="&#xc3;" horiz-adv-x="443" 
d="M443 511h-109q-68 0 -68 -61v-450h-219v495q0 98 55.5 158.5t143.5 60.5h197v-203z" />
    <glyph glyph-name="Adieresis" unicode="&#xc4;" horiz-adv-x="632" 
d="M266 0h-266v178h48l-1 267q0 107 72.5 187.5t194.5 80.5q36 0 65 -6t62 -22q62 -29 102.5 -92.5t40.5 -153.5v-261h48v-178h-336v178h70l-1 281q0 25 -14 39t-37 14q-20 0 -34 -14t-14 -39v-459z" />
    <glyph glyph-name="Aring" unicode="&#xc5;" horiz-adv-x="530" 
d="M490 0h-113q-80 0 -147 30t-112.5 83.5t-70.5 118.5q-20 60 -20 131q0 86 43 164t122 126t183 48h115v-187h-78q-111 0 -145 -80h223v-168h-223q9 -30 44 -55q38 -25 91 -25h88v-186z" />
    <glyph glyph-name="AE" unicode="&#xc6;" horiz-adv-x="1096" 
d="M719 528q42 77 121 125t183 48h45v-187h-8q-55 0 -87 -18.5t-58 -61.5q-9 -16 -14.5 -39t-5.5 -49q0 -54 20 -80q33 -43 51 -56q33 -24 84 -24h18v-186h-43q-80 0 -147 30t-112.5 83.5t-70.5 118.5l-11 32h-38v-264h-200v264h-34l-11 -32q-25 -65 -70.5 -118.5
t-112.5 -83.5t-147 -30h-43v186h18q53 0 85 22q26 18 50 58q21 35 21 85t-21 83q-26 42 -58.5 61t-86.5 19h-8v187h45q104 0 183 -48t121 -125q14 -26 20 -42q7 -26 15 -52h34v264h200v-264h38q3 8 12 41q6 23 23 53z" />
    <glyph glyph-name="Ccedilla" unicode="&#xc7;" horiz-adv-x="574" 
d="M474 380q41 -32 60 -73q23 -49 23 -97q0 -49 -21 -96.5t-68.5 -80.5t-107.5 -33h-332v178h237q37 0 54 13t17 35q0 21 -17.5 37t-53.5 16l-124 1v153l133 1q50 0 50 36q0 18 -15 30t-35 12h-246v188l246 -1q78 0 130 -28q28 -16 48.5 -33.5t34 -42t20 -49t6.5 -55.5
q0 -65 -39 -111z" />
    <glyph glyph-name="Egrave" unicode="&#xc8;" horiz-adv-x="678" 
d="M623 0h-216v293l-114 -223q-19 -40 -55.5 -62t-75.5 -22q-50 0 -82.5 32.5t-32.5 92.5v590h217v-295l117 227q40 80 125 80q47 0 82 -31t35 -84v-598z" />
    <glyph glyph-name="Eacute" unicode="&#xc9;" horiz-adv-x="678" 
d="M623 0h-216v293l-114 -223q-19 -40 -55.5 -62t-75.5 -22q-50 0 -82.5 32.5t-32.5 92.5v590h217v-295l117 227q40 80 125 80q47 0 82 -31t35 -84v-598zM336 726q76 0 134 25q19 8 43 25l1 142q-33 -15 -54 -22q-68 -23 -125 -23q-60 0 -123 21q-21 7 -52 22l-1 -140
q22 -17 41 -25q57 -25 136 -25z" />
    <glyph glyph-name="Ecircumflex" unicode="&#xca;" horiz-adv-x="631" 
d="M47 0v699h219v-250q13 -4 23.5 19t20.5 59l59 172h219l-55 -170q-10 -31 -18.5 -54t-15.5 -36q-14 -30 -40 -48q19 -3 44.5 -18.5t46 -43.5t20.5 -71v-258h-219v236q0 31 -21.5 40t-63.5 9v-285h-219z" />
    <glyph glyph-name="Edieresis" unicode="&#xcb;" horiz-adv-x="594" 
d="M590 -1h-223l-70 439l-68 -439h-225l129 588q17 68 52.5 96.5t111.5 28.5q89 0 122.5 -39.5t45.5 -99.5z" />
    <glyph glyph-name="Igrave" unicode="&#xcc;" horiz-adv-x="869" 
d="M35 0l45 541q0 46 10.5 78.5t30.5 53.5q35 40 108 40q72 0 103 -24t43 -74l61 -236l52 215q13 53 35.5 79t40.5 30.5t40 7t42 2.5q130 0 143 -149l47 -564h-211l-25 418l-88 -361q-6 -27 -28 -43t-50 -16q-25 0 -46 14t-27 37l-91 369l-24 -418h-211z" />
    <glyph glyph-name="Iacute" unicode="&#xcd;" horiz-adv-x="632" 
d="M47 0v699h218v-242h100v242h219v-699h-219v275h-100v-275h-218z" />
    <glyph glyph-name="Icircumflex" unicode="&#xce;" horiz-adv-x="760" 
d="M17 355q0 44 10 83t34 83q43 82 125 137q41 27 87.5 41t102.5 14q105 0 187.5 -49t129.5 -134.5t47 -183.5q0 -77 -30 -142t-81 -112t-117 -76q-34 -14 -64.5 -21t-65.5 -7q-48 0 -92 10.5t-86 33.5q-84 47 -135.5 131t-51.5 192zM240 346q0 -63 40 -99q21 -19 44 -28.5
t51 -9.5q58 0 100 37t42 104t-40 102.5t-99 35.5q-56 0 -97 -38t-41 -104z" />
    <glyph glyph-name="Idieresis" unicode="&#xcf;" horiz-adv-x="631" 
d="M583 0h-217v466q0 44 -51 50q-50 0 -50 -50v-466h-217v466q0 74 34.5 129.5t96 87t136.5 31.5q42 0 74.5 -7t66.5 -25q60 -32 93.5 -89t33.5 -125v-468z" />
    <glyph glyph-name="Eth" unicode="&#xd0;" horiz-adv-x="590" 
d="M49 0v436q0 113 60 193q30 39 76.5 61.5t103.5 22.5q60 0 105 -12.5t85 -44.5q79 -62 89 -176q0 -63 -12 -108t-43 -84q-64 -79 -202 -79l-16 2v193q33 -3 51.5 15.5t18.5 41.5q0 49 -47 49q-28 0 -39 -14t-11 -60v-436h-219z" />
    <glyph glyph-name="Ntilde" unicode="&#xd1;" horiz-adv-x="520" 
d="M478 0h-105q-111 0 -188.5 48t-118.5 126q-20 39 -30.5 80.5t-10.5 86.5t11.5 93.5t30.5 86.5q38 78 118.5 128t191.5 50h101v-197h-70q-73 0 -116.5 -44.5t-43.5 -114.5q0 -58 46 -104q47 -42 120 -42l64 1v-198z" />
    <glyph glyph-name="Ograve" unicode="&#xd2;" horiz-adv-x="443" 
d="M113 0v500h-115v199h449v-199h-117v-500h-217z" />
    <glyph glyph-name="Oacute" unicode="&#xd3;" horiz-adv-x="631" 
d="M68 222q44 -24 89.5 -34t85.5 -10q21 0 42.5 2.5t29.5 3.5q24 4 37.5 14.5t13.5 33.5v26q-13 -7 -24.5 -9.5t-26.5 -2.5q-42 0 -74.5 7t-66.5 25q-59 31 -93 87.5t-34 126.5v207h219v-205q0 -44 49 -50q50 0 50 50v205h219v-465q0 -71 -35 -128t-99 -90q-15 -10 -29 -15
q-42 -15 -106 -15q-96 0 -181 18q-28 6 -66 18v200z" />
    <glyph glyph-name="Ocircumflex" unicode="&#xd4;" horiz-adv-x="860" 
d="M432 676q29 18 60 27.5t69 9.5q60 0 105 -12.5t85 -44.5q79 -62 89 -176q0 -63 -12 -108t-43 -84q-64 -79 -202 -79l-16 2v193q33 -3 51.5 15.5t18.5 41.5q0 49 -47 49q-28 0 -39 -14t-11 -60v-436h-220v436q0 46 -11 60t-39 14q-47 0 -47 -49q0 -23 18.5 -41.5
t51.5 -15.5v-193l-16 -2q-138 0 -202 79q-30 38 -42.5 85t-12.5 107q10 114 89 176q39 30 86 43.5t104 13.5q45 0 65 -4.5t68 -32.5z" />
    <glyph glyph-name="Otilde" unicode="&#xd5;" horiz-adv-x="631" 
d="M35 0v199q73 0 122.5 35t49.5 112q0 49 -23 85q-20 35 -60.5 55t-88.5 20v195h70q84 0 128.5 -24.5t82.5 -74.5q43 59 98 80q57 19 115 19h69v-195q-94 0 -133 -45t-39 -106q0 -81 44 -118q23 -19 54.5 -29.5t73.5 -10.5v-197h-71q-69 0 -117.5 22t-93.5 76
q-45 -51 -94 -74.5t-107 -23.5h-80z" />
    <glyph glyph-name="Odieresis" unicode="&#xd6;" horiz-adv-x="652" 
d="M412 2q-48 -16 -97 -16q-42 0 -74.5 7t-66.5 25q-60 32 -93.5 89t-33.5 125v467h219v-465q0 -22 14 -36t35 -14t35.5 13.5t14.5 36.5v465h219v-541q0 -22 16 -34.5t43 -15.5v-198q-44 0 -81 7.5t-70 25t-45 25.5q-15 11 -35 34z" />
    <glyph glyph-name="multiply" unicode="&#xd7;" horiz-adv-x="606" 
d="M344 208q-13 -7 -24.5 -9.5t-26.5 -2.5q-42 0 -74.5 7t-66.5 25q-59 31 -93 87.5t-34 126.5v257h219v-255q0 -44 49 -50q50 0 50 50v255h219v-699h-218v208z" />
    <glyph glyph-name="Oslash" unicode="&#xd8;" horiz-adv-x="926" 
d="M47 699h219v-465q0 -41 39 -47q46 0 46 55v457h217v-461q0 -50 41 -54q23 0 35 12t12 34v469h217v-476q0 -72 -35 -125.5t-93 -81.5t-120 -28q-101 0 -164 67q-58 -67 -166 -67q-95 0 -171.5 63t-76.5 168v480z" />
    <glyph glyph-name="Ugrave" unicode="&#xd9;" horiz-adv-x="968" 
d="M310 -14q-42 0 -74.5 7t-66.5 25q-60 32 -93.5 89t-33.5 125v467h219v-465q0 -22 14 -36t35 -14t35.5 13.5t14.5 36.5v465h219v-465q0 -22 14 -36t35 -14t35.5 13.5t14.5 36.5v465h219v-541q0 -22 16 -34.5t43 -15.5v-198q-44 0 -81 7.5t-70 24.5t-46.5 27t-33.5 33
q-48 -16 -97 -16q-45 0 -86.5 9t-74.5 31q-29 -19 -82 -31q-42 -9 -75 -9z" />
    <glyph glyph-name="Uacute" unicode="&#xda;" horiz-adv-x="590" 
d="M48 510h-48v190h266v-436q0 -46 11 -60t39 -14q47 0 47 49q0 23 -18.5 41.5t-51.5 15.5v193l16 2q138 0 202 -79q30 -38 42.5 -85t12.5 -107q-10 -114 -89 -176q-39 -30 -86 -43.5t-104 -13.5q-59 0 -103.5 21.5t-76.5 62.5q-60 80 -60 193z" />
    <glyph glyph-name="Ucircumflex" unicode="&#xdb;" horiz-adv-x="862" 
d="M568 222q-10 -114 -89 -176q-39 -30 -86 -43.5t-104 -13.5q-59 0 -103.5 21.5t-76.5 62.5q-60 80 -60 193v436h219v-436q0 -46 11 -60t39 -14q47 0 47 49q0 23 -18.5 41.5t-51.5 15.5v193l16 2q138 0 202 -79q30 -38 42.5 -85t12.5 -107zM590 0h218v700h-218v-700z" />
    <glyph glyph-name="Udieresis" unicode="&#xdc;" horiz-adv-x="590" 
d="M568 222q-10 -114 -89 -176q-39 -30 -86 -43.5t-104 -13.5q-59 0 -103.5 21.5t-76.5 62.5q-60 80 -60 193v436h219v-436q0 -46 11 -60t39 -14q47 0 47 49q0 23 -18.5 41.5t-51.5 15.5v193l16 2q138 0 202 -79q30 -38 42.5 -85t12.5 -107z" />
    <glyph glyph-name="Yacute" unicode="&#xdd;" horiz-adv-x="537" 
d="M511 363q0 -39 -4 -67t-16 -64q-25 -65 -70.5 -118.5t-112.5 -83.5t-147 -30h-113v186h88q53 0 91 25q35 25 44 55h-223v168h223q-34 80 -145 80h-78v187h115q104 0 183 -48t122 -126t43 -164z" />
    <glyph glyph-name="Thorn" unicode="&#xde;" horiz-adv-x="1079" 
d="M1068 346q0 -77 -30 -142t-81 -112t-117 -76q-34 -14 -64.5 -21t-65.5 -7q-48 0 -92 10.5t-86 33.5q-84 47 -136 131q-21 35 -26 47.5l-10 25.5h-94v-236h-218v700h218v-250h96q3 18 5.5 26.5t21.5 44.5q43 82 125 137q41 27 87.5 41t102.5 14q105 0 187.5 -49
t129.5 -134.5t47 -183.5zM845 350q0 67 -40 102.5t-99 35.5q-56 0 -97 -38t-41 -104q0 -63 40 -99q21 -19 44 -28.5t51 -9.5q58 0 100 37t42 104z" />
    <glyph glyph-name="germandbls" unicode="&#xdf;" horiz-adv-x="628" 
d="M577 0h-217v436q0 40 -9.5 61t-38.5 21q-25 0 -37 -15q-14 -15 -14 -38q0 -51 68 -51v-170q-18 0 -28.5 -3t-21 -10.5t-10.5 -46.5v-184h-219v223q0 51 21.5 86.5t58.5 45.5q-35 23 -51.5 58t-16.5 79q0 87 67 154t188 67q74 0 133 -30t93 -89t34 -147v-447z" />
    <glyph glyph-name="agrave" unicode="&#xe0;" horiz-adv-x="594" 
d="M342 191v-197l-59 -4q-114 0 -188 74.5t-74 187.5q0 61 23 111.5t59 83t88 50.5q23 8 48 11.5t56 3.5q45 0 83 -11.5t71 -34.5q61 -42 91 -111.5t30 -147.5v-207h-203v250q0 21 -9.5 36.5t-27.5 24.5t-35 9q-29 0 -51 -17.5t-22 -48.5q0 -33 18 -53t49 -23q27 3 53 13z
" />
    <glyph glyph-name="aacute" unicode="&#xe1;" horiz-adv-x="576" 
d="M559 242q0 -64 -34.5 -121.5t-95.5 -94t-138 -36.5q-67 0 -127.5 34t-98.5 90t-38 120v247q0 123 82 179.5t211 56.5q49 0 94 -6t94 -20v-169q-139 25 -168 25q-109 0 -109 -80v-209q0 -36 19 -55t47 -19q24 0 43.5 17t19.5 45q0 26 -18 47q-18 18 -49 21
q-7 0 -15.5 -1.5t-19.5 -5.5v181q30 14 72 14q90 0 159.5 -69t69.5 -191z" />
    <glyph glyph-name="acircumflex" unicode="&#xe2;" horiz-adv-x="640" 
d="M38 0v517q0 91 61.5 143.5t176.5 52.5q103 0 172.5 -51t69.5 -129q0 -30 -5.5 -54.5t-22.5 -48.5q80 -49 105 -86q29 -42 29 -121q0 -92 -55 -155q-59 -68 -152 -68h-151v166q147 0 147 61q0 36 -37 52.5t-110 16.5v152q4 -1 13 -1q31 0 45 22q9 14 9 33q0 21 -15 36
t-38 15q-37 0 -37 -47v-506h-205z" />
    <glyph glyph-name="atilde" unicode="&#xe3;" horiz-adv-x="443" 
d="M415 0h-211q-85 0 -129.5 39.5t-44.5 103.5q0 99 119 154q32 15 35 31q-3 12 -21 12h-115v160h207q25 0 50.5 -7.5t52.5 -23.5q55 -33 55 -100q0 -102 -119 -148q-39 -17 -39 -35t39 -18h121v-168z" />
    <glyph glyph-name="adieresis" unicode="&#xe4;" horiz-adv-x="594" 
d="M561 234q0 -34 -9 -62.5t-28 -57.5q-39 -56 -99.5 -90t-127.5 -34q-77 0 -138 36.5t-95.5 94t-34.5 121.5q0 122 69.5 191t159.5 69q42 0 72 -14v-181q-21 7 -35 7q-31 -3 -49 -21q-18 -21 -18 -47q0 -28 19.5 -45t43.5 -17q28 0 47 19t19 55v209q0 80 -109 80
q-29 0 -168 -25v169q47 14 92 20t96 6q129 0 211 -56.5t82 -179.5v-247z" />
    <glyph glyph-name="aring" unicode="&#xe5;" horiz-adv-x="562" 
d="M546 320l-250 -138l-57 101l98 55q-21 21 -49 21q-31 0 -57.5 -27.5t-26.5 -65.5q0 -51 30 -82.5t71 -31.5q33 0 65 17.5t62 51.5l112 -114q-42 -54 -111 -84.5t-145 -30.5q-67 0 -128 27t-100 84q-38 60 -38 139q0 82 36.5 144t95.5 95t122 33t116 -24t92 -66t62 -104z
" />
    <glyph glyph-name="ae" unicode="&#xe6;" horiz-adv-x="806" 
d="M304 0v193q-75 0 -75 -47v-146h-201v94q0 97 25 131.5t83 61.5q-31 15 -49 48q-19 31 -38 87l-29 78h204q8 -15 23 -64.5t25.5 -69t31.5 -16.5l-1 349h199v-349q21 -3 31.5 16.5t25.5 69t23 64.5h204l-29 -78q-19 -56 -38 -87q-18 -33 -49 -48q58 -27 83 -61.5t25 -131.5
v-94h-201v146q0 47 -75 47v-193h-198z" />
    <glyph glyph-name="ccedilla" unicode="&#xe7;" horiz-adv-x="514" 
d="M416 182q74 -70 74 -159q0 -59 -21 -106.5t-62 -75.5q-82 -56 -211 -56q-49 0 -94 6t-94 20v169q139 -25 168 -25q56 0 82.5 16t26.5 54q0 31 -35 45q-25 10 -63 10h-121v158h146q30 0 42 17q3 5 5 13t2 15q0 21 -15.5 33.5t-37.5 12.5l-188 1v168h192q59 0 104 -13.5
t83 -43.5q25 -19 41.5 -58.5t16.5 -82.5q0 -33 -9.5 -62t-31.5 -56z" />
    <glyph glyph-name="egrave" unicode="&#xe8;" horiz-adv-x="557" 
d="M310 168v332h201v-500h-306q-47 0 -86 22q-41 21 -66 66.5t-25 106.5v305h202v-277q0 -25 11.5 -40t29.5 -15h39z" />
    <glyph glyph-name="eacute" unicode="&#xe9;" horiz-adv-x="557" 
d="M511 0h-306q-47 0 -86 22q-41 21 -66 66.5t-25 106.5v305h202v-277q0 -25 11.5 -40t29.5 -15h39v332h201v-500zM269 649q-75 0 -133 45v-118q36 -21 67 -30t68 -9q68 0 135 39v118q-33 -24 -62 -34.5t-75 -10.5z" />
    <glyph glyph-name="ecircumflex" unicode="&#xea;" horiz-adv-x="546" 
d="M37 0v499h199v-149q21 -3 31.5 16.5t25.5 69t23 64.5h204l-29 -78q-19 -56 -38 -87q-18 -33 -49 -48q58 -27 83 -61.5t25 -131.5v-94h-201v146q0 47 -75 47v-193h-199z" />
    <glyph glyph-name="edieresis" unicode="&#xeb;" horiz-adv-x="509" 
d="M509 0h-199l-54 305l-57 -305h-199l101 394q15 57 57.5 87.5t95.5 30.5q54 0 98 -31t56 -87z" />
    <glyph glyph-name="igrave" unicode="&#xec;" horiz-adv-x="840" 
d="M320 0l-54 305l-57 -305h-199l101 394q15 57 57.5 87.5t95.5 30.5q54 0 97 -31q15 -10 27 -28q7 -11 30 -59q9 24 15 36q19 38 37 51q43 31 96 31q54 0 98 -31t56 -87l101 -394h-199l-54 305l-62 -305h-186z" />
    <glyph glyph-name="iacute" unicode="&#xed;" horiz-adv-x="560" 
d="M238 322h78v180h204v-502h-202v197l-80 1v-198h-201v501l201 1v-180z" />
    <glyph glyph-name="icircumflex" unicode="&#xee;" horiz-adv-x="556" 
d="M13 252q0 68 34.5 128.5t93 96t128.5 35.5q77 0 138.5 -36t95.5 -94.5t34 -121.5q0 -83 -37.5 -146t-99 -96.5t-131.5 -33.5q-86 0 -171 72t-85 196zM212 252q0 -25 18 -44t43 -22q26 0 47 18t21 46q0 27 -20 45.5t-44 18.5t-44.5 -17.5t-20.5 -44.5z" />
    <glyph glyph-name="idieresis" unicode="&#xef;" horiz-adv-x="528" 
d="M27 0v303q0 64 29.5 111t83.5 72.5t124 25.5q104 0 170 -56.5t66 -152.5v-303h-199v270q0 58 -37 58q-36 0 -36 -51v-277h-201z" />
    <glyph glyph-name="eth" unicode="&#xf0;" horiz-adv-x="581" 
d="M27 -201v404q0 84 30.5 154t89.5 112.5t136 42.5q86 0 149.5 -35t96.5 -97.5t33 -137.5q0 -44 -15 -93t-51.5 -90t-96.5 -61q-38 -11 -83 -11q-26 0 -66 5v197q17 -8 45 -13q33 0 55 23q23 21 23 55t-20.5 52t-49.5 18q-30 0 -52.5 -22.5t-22.5 -65.5v-437h-201z" />
    <glyph glyph-name="ntilde" unicode="&#xf1;" horiz-adv-x="426" 
d="M395 0h-124q-101 0 -171.5 75.5t-70.5 174.5q0 64 30.5 120.5t86.5 93t125 36.5h124v-172h-69q-94 0 -94 -78q0 -36 23 -58q23 -20 61 -20h79v-172z" />
    <glyph glyph-name="ograve" unicode="&#xf2;" horiz-adv-x="804" 
d="M299 0v277q0 55 -37 55q-36 0 -36 -57v-275h-199v307q0 101 64 153t151 52q49 0 93 -17t65 -46q23 28 66 45.5t92 17.5q87 0 151 -53.5t64 -153.5v-305h-201v268q0 66 -35 66q-37 0 -37 -61v-273h-201z" />
    <glyph glyph-name="oacute" unicode="&#xf3;" horiz-adv-x="550" 
d="M96 68q-36 29 -53 78.5t-17 113.5l1 242h198v-246q0 -34 8 -48t36 -14q20 0 28 16.5t8 47.5l-1 244h204v-481q0 -123 -82 -179.5t-211 -56.5q-46 0 -80.5 5.5t-87.5 20.5v169q49 -18 94 -23q17 -2 54 -2q109 0 109 80q-13 -4 -21 -6q-29 -7 -54 -7q-34 0 -67.5 10
t-65.5 36z" />
    <glyph glyph-name="ocircumflex" unicode="&#xf4;" horiz-adv-x="906" 
d="M454 458q-20 18 -37 27q-51 27 -118 27q-86 0 -149.5 -35t-96.5 -97.5t-33 -137.5q0 -44 15 -93t51.5 -90t96.5 -61q38 -11 83 -11q26 0 66 5v197q-16 -8 -45 -13q-33 0 -55 23q-23 21 -23 55t20.5 52t49.5 18q30 0 52.5 -22.5t22.5 -65.5l-1 -437h201v437
q0 43 22.5 65.5t52.5 22.5q29 0 49.5 -18t20.5 -52t-23 -55q-22 -23 -55 -23q-28 5 -45 13v-197q40 -5 68 -5q21 0 42 3t39 8q60 20 96.5 61t51.5 90t15 93q0 75 -33 137.5t-96.5 97.5t-149.5 35q-64 0 -116 -27q-17 -9 -39 -27z" />
    <glyph glyph-name="otilde" unicode="&#xf5;" horiz-adv-x="486" 
d="M27 0v172h49q31 0 48.5 23.5t17.5 54.5q0 32 -20 55q-18 23 -54 23h-41v172h59q53 0 88 -16q37 -15 66 -52q51 68 152 68h63v-172h-43q-33 0 -56 -24q-11 -12 -16.5 -25.5t-5.5 -32.5q0 -28 19 -51t53 -23h49v-172h-70q-42 0 -80.5 18t-64.5 50q-57 -68 -145 -68h-68z
" />
    <glyph glyph-name="odieresis" unicode="&#xf6;" horiz-adv-x="537" 
d="M264 -12q-101 0 -167 58.5t-66 162.5v291h201v-283q0 -18 10 -30t26 -15q37 0 37 47v281h199v-335q0 -17 13.5 -29.5t32.5 -15.5v-186q-119 0 -182 72q-25 -9 -49.5 -13.5t-54.5 -4.5z" />
    <glyph glyph-name="divide" unicode="&#xf7;" horiz-adv-x="557" 
d="M516 512v-512h-199v175q-49 -35 -108 -35q-45 0 -85 23q-41 21 -66 66.5t-25 106.5v176h202v-137q0 -25 11.5 -40t29.5 -15q16 0 27 14q12 12 12 35v143h201z" />
    <glyph glyph-name="oslash" unicode="&#xf8;" horiz-adv-x="814" 
d="M33 500h201v-275q0 -59 36 -59q37 0 37 66v268h201v-275q0 -61 39 -61q33 0 33 59v277h201v-318q0 -61 -30.5 -103.5t-83 -65.5t-106.5 -23q-45 0 -86 15t-67 46q-25 -28 -69 -45.5t-93 -17.5q-85 0 -149 54t-64 155v303z" />
    <glyph glyph-name="ugrave" unicode="&#xf9;" horiz-adv-x="846" 
d="M280 -14q-101 0 -167 58.5t-66 162.5v291h201v-283q0 -39 36 -45q37 0 37 47v283h201v-283q0 -39 36 -45q37 0 37 47v281h199v-335q0 -17 13.5 -29.5t32.5 -15.5v-186q-119 0 -182 72q-27 -10 -51 -15t-53 -5q-47 0 -76.5 8.5t-65.5 29.5q-27 -18 -62.5 -28t-69.5 -10z
" />
    <glyph glyph-name="uacute" unicode="&#xfa;" horiz-adv-x="584" 
d="M329 0q121 0 185 67q57 60 57 158q0 93 -56 154q-65 71 -186 71h-51v-155q8 1 12 1q29 0 48 -11q30 -18 30 -60q0 -50 -51 -65q-17 -4 -52 -5h-17v347h-248v-158h48v-344h281z" />
    <glyph glyph-name="ucircumflex" unicode="&#xfb;" horiz-adv-x="810" 
d="M319 0q121 0 185 67q57 60 57 158q0 93 -56 154q-65 71 -186 71h-52v-155q8 1 12 1q29 0 48 -11q31 -18 31 -60q0 -50 -51 -65q-17 -4 -52 -5l-17 1v346h-200v-502h281zM774 0v504h-200v-504h200z" />
    <glyph glyph-name="udieresis" unicode="&#xfc;" horiz-adv-x="580" 
d="M314 0q121 0 185 67q57 60 57 158q0 93 -56 154q-65 71 -186 71h-52v-155q8 1 12 1q29 0 48 -11q31 -18 31 -60q0 -50 -51 -65q-17 -4 -52 -5l-17 1v346h-200v-502h281z" />
    <glyph glyph-name="yacute" unicode="&#xfd;" horiz-adv-x="444" 
d="M158 494h-130v-138l110 -1q36 0 59 -13t38 -35h-152v-120h152q-15 -22 -38 -35t-59 -13l-110 1v-140h130q110 0 189 74t79 182q0 99 -79.5 168.5t-188.5 69.5z" />
    <glyph glyph-name="thorn" unicode="&#xfe;" horiz-adv-x="836" 
d="M815 259q0 -43 -8 -78t-28 -67q-37 -63 -99.5 -97t-132.5 -34q-52 0 -97 18.5t-79 52.5q-27 27 -48 63.5t-27 64.5h-62v-182h-196v498h196v-194h61q3 18 9 35.5t21.5 44t39.5 50.5t55 43q59 35 129 35q37 0 70.5 -9.5t66.5 -28.5q60 -36 94.5 -95t34.5 -120zM621 250
q0 27 -20 45.5t-44 18.5t-44.5 -17.5t-20.5 -44.5q0 -25 18 -44t43 -22q26 0 47 18t21 46z" />
    <glyph glyph-name="ydieresis" unicode="&#xff;" horiz-adv-x="598" 
d="M4 0q0 55 6 92t23.5 58.5t32.5 35.5q22 21 57 42q-43 43 -43 101q0 48 30 90t86 66t126 24q113 0 175.5 -52.5t62.5 -123.5v-333h-205v302q0 47 -37 47q-22 0 -37.5 -15t-15.5 -36q0 -22 27.5 -58t27.5 -55q-4 -26 -16 -37.5t-49 -35.5q-23 -16 -30.5 -34t-7.5 -43v-18
t1 -17h-214z" />
    <glyph glyph-name="breve" unicode="&#x2d8;" horiz-adv-x="277" 
d="M-33 713h90q0 -33 24 -57q12 -11 26 -17t32 -6q35 0 58 19.5t28 60.5h89q0 -41 -21.5 -81t-60.5 -65.5t-95 -25.5q-76 0 -118.5 50.5t-51.5 121.5z" />
    <glyph glyph-name="dotlessi" unicode="&#x131;" horiz-adv-x="277" 
d="M238 0h-199v500h199v-500z" />
    <glyph glyph-name="ring" unicode="&#x2da;" horiz-adv-x="277" 
d="M37 645q0 22 9 40.5t25 33.5q30 27 70 27q35 0 68 -27q31 -28 31 -74q0 -44 -30 -74q-31 -28 -71 -28q-32 0 -67 27t-35 75zM111 646q0 -23 28 -29q29 3 29 29q0 24 -29 24q-28 0 -28 -24z" />
    </font>
</defs>
</svg>
