<svg xmlns="http://www.w3.org/2000/svg" xmlns:xlink="http://www.w3.org/1999/xlink" width="133.5" height="150" viewBox="0 0 133.5 150">
  <metadata><?xpacket begin="﻿" id="W5M0MpCehiHzreSzNTczkc9d"?>
<x:xmpmeta xmlns:x="adobe:ns:meta/" x:xmptk="Adobe XMP Core 5.6-c142 79.160924, 2017/07/13-01:06:39        ">
   <rdf:RDF xmlns:rdf="http://www.w3.org/1999/02/22-rdf-syntax-ns#">
      <rdf:Description rdf:about=""/>
   </rdf:RDF>
</x:xmpmeta>
                                                                                                    
                                                                                                    
                                                                                                    
                                                                                                    
                                                                                                    
                                                                                                    
                                                                                                    
                                                                                                    
                                                                                                    
                                                                                                    
                                                                                                    
                                                                                                    
                                                                                                    
                                                                                                    
                                                                                                    
                                                                                                    
                                                                                                    
                                                                                                    
                                                                                                    
                                                                                                    
                           
<?xpacket end="w"?></metadata>
<defs>
    <style>
      .cls-1 {
        fill-rule: evenodd;
        fill: url(#linear-gradient);
      }
    </style>
    <linearGradient id="linear-gradient" x1="530.75" y1="1372.25" x2="397.25" y2="1238.75" gradientUnits="userSpaceOnUse">
      <stop offset="0" stop-color="#77e572"/>
      <stop offset="1" stop-color="#4ed1c6"/>
    </linearGradient>
  </defs>
  <path id="Forma_1" data-name="Forma 1" class="cls-1" d="M478.511,1254.81a2.93,2.93,0,1,0,2.9,2.93A2.922,2.922,0,0,0,478.511,1254.81Zm-29.022,0a2.93,2.93,0,1,0,2.9,2.93A2.922,2.922,0,0,0,449.489,1254.81Zm77.524,63.25a23.57,23.57,0,0,0,3.737-12.56,20.415,20.415,0,0,0-7.352-15.74,19.977,19.977,0,0,0,1.547-7.7,21.857,21.857,0,0,0-11.732-19.31A17.545,17.545,0,0,0,500,1243.59c-3.336-7.79-10.761-13.09-18.59-13.09A20.368,20.368,0,0,0,464,1241.05a20.369,20.369,0,0,0-17.413-10.55c-7.829,0-15.255,5.3-18.59,13.09a17.539,17.539,0,0,0-13.211,19.16,21.858,21.858,0,0,0-11.732,19.31,19.978,19.978,0,0,0,1.548,7.7,20.415,20.415,0,0,0-7.352,15.74,23.581,23.581,0,0,0,3.737,12.56,20.368,20.368,0,0,0,2.328,26.26c-1.992,12.16,7.611,24.46,20.054,24.46a2.339,2.339,0,0,0,.266-0.01,23.233,23.233,0,0,0,20.05,11.73c8.616,0,16.314-5.22,20.315-12.74,4,7.52,11.7,12.74,20.315,12.74a23.233,23.233,0,0,0,20.05-11.73,2.321,2.321,0,0,0,.265.01c11.012,0,20.315-9.8,20.315-21.39a18.9,18.9,0,0,0-.26-3.07A20.368,20.368,0,0,0,527.013,1318.06ZM461.1,1274.85a11.46,11.46,0,0,0-5.805-1.58,2.93,2.93,0,0,0,0,5.86,5.84,5.84,0,0,1,5.805,5.86v55.71a23.091,23.091,0,0,0-17.413-7.96,2.93,2.93,0,0,0,0,5.86,17.52,17.52,0,0,1,17.413,17.58c0,10.01-7.975,18.46-17.413,18.46a17.45,17.45,0,0,1-15.759-10.22,2.894,2.894,0,0,0-2.96-1.68c-0.2.02-.409,0.05-0.613,0.08-8.26,1.14-17.561-8.3-15.044-18.86a2.949,2.949,0,0,0-.965-2.94,14.467,14.467,0,0,1-3.16-18.74,19.517,19.517,0,0,0,12.381,4.6,2.93,2.93,0,0,0,0-5.86c-7.876,0-14.511-7.25-14.511-15.52a14.611,14.611,0,0,1,6.777-12.35,2.944,2.944,0,0,0,.972-3.92,14.532,14.532,0,0,1-1.945-7.17c0-7.91,6.386-15.53,14.511-15.53,7.731,0,14.511,7.26,14.511,15.53a2.9,2.9,0,1,0,5.805,0c0-11.59-9.3-21.39-20.316-21.39a18.691,18.691,0,0,0-2.9.23c0-.07-0.007-0.15-0.007-0.23a11.661,11.661,0,0,1,11.609-11.72,11.47,11.47,0,0,1,8.211,3.44,2.881,2.881,0,0,0,4.1-.01,2.945,2.945,0,0,0,0-4.14,17.281,17.281,0,0,0-9.626-4.94c2.56-3.83,6.816-6.94,11.824-6.94,7.73,0,14.511,7.25,14.511,15.52v22.97Zm49.337,52.03a19.519,19.519,0,0,0,12.381-4.6,14.471,14.471,0,0,1-3.16,18.74,2.952,2.952,0,0,0-.966,2.94,14.554,14.554,0,0,1,.451,3.43c0,9.09-8.148,16.45-15.494,15.43-0.2-.03-0.408-0.06-0.613-0.08a2.892,2.892,0,0,0-2.96,1.68,17.451,17.451,0,0,1-15.759,10.22c-9.439,0-17.413-8.45-17.413-18.46a17.519,17.519,0,0,1,17.413-17.58,2.93,2.93,0,0,0,0-5.86,23.091,23.091,0,0,0-17.413,7.96v-55.71a5.84,5.84,0,0,1,5.8-5.86,2.93,2.93,0,0,0,0-5.86,11.459,11.459,0,0,0-5.8,1.58v-22.97c0-8.27,6.781-15.52,14.511-15.52,5.008,0,9.264,3.11,11.823,6.94a17.278,17.278,0,0,0-9.625,4.94,2.944,2.944,0,0,0,0,4.14,2.881,2.881,0,0,0,4.1.01,11.473,11.473,0,0,1,8.212-3.44,11.659,11.659,0,0,1,11.608,11.72c0,0.08,0,.16-0.007.23a18.681,18.681,0,0,0-2.895-.23c-11.012,0-20.315,9.8-20.315,21.39a2.9,2.9,0,1,0,5.8,0c0-8.27,6.781-15.53,14.511-15.53,8.121,0,14.511,7.62,14.511,15.53a14.531,14.531,0,0,1-1.944,7.17,2.944,2.944,0,0,0,.972,3.92,14.61,14.61,0,0,1,6.776,12.35c0,8.3-6.657,15.52-14.51,15.52A2.93,2.93,0,0,0,510.435,1326.88Zm-55.881-33.67a2.879,2.879,0,0,0-4.1-.23c-9.306,8.4-24.185,1.68-24.185-10.92a2.9,2.9,0,1,0-5.8,0,20.48,20.48,0,0,0,17.007,20.23,8.726,8.726,0,0,1-8.3,6.14,2.93,2.93,0,0,0,0,5.86,14.569,14.569,0,0,0,14.25-11.9,20.179,20.179,0,0,0,10.9-5.05A2.941,2.941,0,0,0,454.554,1293.21Zm-31.185,51.25a2.93,2.93,0,0,0,0,5.86c7.731,0,14.511,7.26,14.511,15.53a2.9,2.9,0,1,0,5.805,0C443.685,1354.26,434.381,1344.46,423.369,1344.46Zm23.218-23.44a26.026,26.026,0,0,0-22.724,13.37,2.943,2.943,0,0,0,1.093,3.99,2.891,2.891,0,0,0,3.956-1.1,20.244,20.244,0,0,1,17.675-10.4A2.93,2.93,0,0,0,446.587,1321.02Zm52.239-12.59a8.726,8.726,0,0,1-8.3-6.14,20.479,20.479,0,0,0,17.006-20.23,2.9,2.9,0,1,0-5.8,0,14.6,14.6,0,0,1-14.511,14.65,14.444,14.444,0,0,1-9.674-3.73,2.877,2.877,0,0,0-4.1.23,2.94,2.94,0,0,0,.228,4.13,20.179,20.179,0,0,0,10.9,5.05,14.569,14.569,0,0,0,14.25,11.9A2.93,2.93,0,0,0,498.826,1308.43Zm5.8,36.03c-11.012,0-20.315,9.8-20.315,21.39a2.9,2.9,0,1,0,5.8,0c0-8.27,6.781-15.53,14.511-15.53A2.93,2.93,0,0,0,504.63,1344.46Zm-0.493-10.07a26.026,26.026,0,0,0-22.724-13.37,2.93,2.93,0,0,0,0,5.86,20.25,20.25,0,0,1,17.674,10.4,2.892,2.892,0,0,0,3.956,1.1A2.944,2.944,0,0,0,504.137,1334.39Z" transform="translate(-397.25 -1230.5)"/>
</svg>
