<?xml version="1.0" encoding="UTF-8"?>
<svg xmlns="http://www.w3.org/2000/svg" width="140" height="38" viewBox="0 0 140 38" fill="none">
  <path d="M72.2817 23.0302C72.4893 22.3912 73.3933 22.3912 73.601 23.0302L74.5685 26.008C74.6614 26.2938 74.9277 26.4873 75.2282 26.4873H78.3593C79.0312 26.4873 79.3105 27.3471 78.767 27.7421L76.2339 29.5825C75.9908 29.7591 75.889 30.0722 75.9819 30.3579L76.9495 33.3358C77.1571 33.9748 76.4257 34.5062 75.8821 34.1112L73.349 32.2708C73.1059 32.0942 72.7767 32.0942 72.5336 32.2708L70.0005 34.1112C69.457 34.5062 68.7256 33.9748 68.9332 33.3358L69.9007 30.3579C69.9936 30.0722 69.8919 29.7591 69.6488 29.5825L67.1157 27.7421C66.5721 27.3471 66.8515 26.4873 67.5234 26.4873H70.6544C70.9549 26.4873 71.2213 26.2938 71.3141 26.008L72.2817 23.0302Z" fill="#EF4335"></path>
  <path d="M87.311 23.0302C87.5186 22.3912 88.4227 22.3912 88.6303 23.0302L89.5979 26.008C89.6907 26.2938 89.957 26.4873 90.2575 26.4873H93.3886C94.0605 26.4873 94.3399 27.3471 93.7963 27.7421L91.2632 29.5825C91.0201 29.7591 90.9184 30.0722 91.0112 30.3579L91.9788 33.3358C92.1864 33.9748 91.455 34.5062 90.9114 34.1112L88.3783 32.2708C88.1352 32.0942 87.8061 32.0942 87.563 32.2708L85.0299 34.1112C84.4863 34.5062 83.7549 33.9748 83.9625 33.3358L84.9301 30.3579C85.0229 30.0722 84.9212 29.7591 84.6781 29.5825L82.145 27.7421C81.6014 27.3471 81.8808 26.4873 82.5527 26.4873H85.6838C85.9843 26.4873 86.2506 26.2938 86.3434 26.008L87.311 23.0302Z" fill="#EF4335"></path>
  <path d="M102.34 23.0302C102.548 22.3912 103.452 22.3912 103.66 23.0302L104.627 26.008C104.72 26.2938 104.986 26.4873 105.287 26.4873H108.418C109.09 26.4873 109.369 27.3471 108.826 27.7421L106.293 29.5825C106.049 29.7591 105.948 30.0722 106.041 30.3579L107.008 33.3358C107.216 33.9748 106.484 34.5062 105.941 34.1112L103.408 32.2708C103.165 32.0942 102.835 32.0942 102.592 32.2708L100.059 34.1112C99.5156 34.5062 98.7842 33.9748 98.9919 33.3358L99.9594 30.3579C100.052 30.0722 99.9505 29.7591 99.7074 29.5825L97.1744 27.7421C96.6308 27.3471 96.9101 26.4873 97.5821 26.4873H100.713C101.014 26.4873 101.28 26.2938 101.373 26.008L102.34 23.0302Z" fill="#EF4335"></path>
  <path d="M117.37 23.0302C117.577 22.3912 118.481 22.3912 118.689 23.0302L119.657 26.008C119.749 26.2938 120.016 26.4873 120.316 26.4873H123.447C124.119 26.4873 124.399 27.3471 123.855 27.7421L121.322 29.5825C121.079 29.7591 120.977 30.0722 121.07 30.3579L122.037 33.3358C122.245 33.9748 121.514 34.5062 120.97 34.1112L118.437 32.2708C118.194 32.0942 117.865 32.0942 117.622 32.2708L115.089 34.1112C114.545 34.5062 113.814 33.9748 114.021 33.3358L114.989 30.3579C115.082 30.0722 114.98 29.7591 114.737 29.5825L112.204 27.7421C111.66 27.3471 111.939 26.4873 112.611 26.4873H115.742C116.043 26.4873 116.309 26.2938 116.402 26.008L117.37 23.0302Z" fill="#EF4335"></path>
  <path d="M132.399 23.0302C132.607 22.3912 133.511 22.3912 133.718 23.0302L134.686 26.008C134.779 26.2938 135.045 26.4873 135.346 26.4873H138.477C139.149 26.4873 139.428 27.3471 138.884 27.7421L136.351 29.5825C136.108 29.7591 136.006 30.0722 136.099 30.3579L137.067 33.3358C137.274 33.9748 136.543 34.5062 135.999 34.1112L133.466 32.2708C133.223 32.0942 132.894 32.0942 132.651 32.2708L130.118 34.1112C129.574 34.5062 128.843 33.9748 129.051 33.3358L130.018 30.3579C130.111 30.0722 130.009 29.7591 129.766 29.5825L127.233 27.7421C126.689 27.3471 126.969 26.4873 127.641 26.4873H130.772C131.072 26.4873 131.339 26.2938 131.431 26.008L132.399 23.0302Z" fill="#EF4335"></path>
  <path d="M48.3963 33V31.4418H44.3478V30.2314L48.7302 23.4422H50.2606V29.8141H51.5405V31.4418H50.2606V33H48.3963ZM46.4068 29.9114H48.5354V26.489L46.4068 29.9114Z" fill="#EF4335"></path>
  <path d="M53.7583 33.1113C53.1322 33.1113 52.6313 32.6244 52.6313 32.0122C52.6313 31.4001 53.1322 30.8992 53.7583 30.8992C54.3704 30.8992 54.8852 31.4001 54.8852 32.0122C54.8852 32.6244 54.3704 33.1113 53.7583 33.1113Z" fill="#EF4335"></path>
  <path d="M59.2831 23.3309C61.2726 23.3309 62.7334 24.8751 62.7334 27.1707C62.7334 30.3149 60.6326 32.7774 57.6275 33.3478L57.071 31.8174C58.8101 31.3444 59.9926 30.5236 60.5631 29.1463L60.5491 29.1323C60.0205 29.4245 59.3944 29.5775 58.7684 29.5775C57.1823 29.5775 55.8607 28.4646 55.8607 26.5168C55.8607 24.6247 57.3493 23.3309 59.2831 23.3309ZM57.711 26.5446C57.711 27.3933 58.2953 27.9915 59.2692 27.9915C59.9231 27.9915 60.5352 27.6159 60.9248 27.1429V27.0177C60.9248 25.8212 60.2292 25.0421 59.3109 25.0421C58.3371 25.0421 57.711 25.7377 57.711 26.5446Z" fill="#EF4335"></path>
  <path d="M49.7292 14.0694C47.0658 14.0694 44.8185 12.3353 44.8185 9.11699C44.8185 6.3148 46.5664 4.05363 49.7292 4.05363C51.0887 4.05363 52.5037 4.60852 53.5718 5.94025L52.6701 6.68935C51.921 5.74604 50.8667 5.20503 49.7292 5.20503C47.4819 5.20503 46.0808 6.82807 46.0808 9.11699C46.0808 11.4614 47.6484 12.918 49.7292 12.918C51.0055 12.918 51.9765 12.3076 52.6701 11.4475L53.5718 12.2105C52.7117 13.2786 51.4632 14.0694 49.7292 14.0694Z" fill="#555770"></path>
  <path d="M55.2578 14V3.79006H56.3815V14H55.2578Z" fill="#555770"></path>
  <path d="M63.2621 7.24424H64.3857V14H63.2621V12.8764H63.2482C62.7072 13.6532 61.9026 14.0832 61.0287 14.0832C59.475 14.0832 58.4901 13.1954 58.4901 11.2672V7.24424H59.6137V10.9481C59.6137 12.4879 60.1825 13.0567 61.2645 13.0567C62.3327 13.0567 63.2621 12.1273 63.2621 10.5181V7.24424Z" fill="#555770"></path>
  <path d="M68.3733 14.0832C67.1665 14.0832 66.6116 13.348 66.6116 11.9885V8.21529H65.7515V7.24424H66.6116V4.94145L67.7352 4.8166V7.24424H69.9825V8.21529H67.7352V11.8221C67.7352 12.6267 67.9294 13.0289 68.5676 13.0289C68.9698 13.0289 69.386 12.8625 69.7051 12.6821L70.0103 13.6671C69.6357 13.8752 69.1641 14.0832 68.3733 14.0832Z" fill="#555770"></path>
  <path d="M74.1275 14.0832C72.1854 14.0832 70.7843 12.6821 70.7843 10.6291C70.7843 8.58984 72.1854 7.16101 74.1691 7.16101C75.1818 7.16101 76.2222 7.57717 76.8881 8.36789L76.1112 9.04762C75.695 8.53435 75.0292 8.20142 74.2246 8.20142C72.8651 8.20142 71.9218 9.20022 71.9218 10.6291C71.9218 12.0718 72.8651 13.0567 74.2246 13.0567C75.0153 13.0567 75.7228 12.7099 76.139 12.2521L76.9158 12.9457C76.347 13.5838 75.3344 14.0832 74.1275 14.0832Z" fill="#555770"></path>
  <path d="M82.0826 7.16101C83.5531 7.16101 84.538 8.02108 84.538 9.94932V14H83.4144V10.2684C83.4144 8.74244 82.7485 8.20142 81.7636 8.20142C80.418 8.20142 79.5718 9.08924 79.5718 10.6013V14H78.4481V3.79006H79.5718V8.35402H79.5995C80.1544 7.57717 81.0422 7.16101 82.0826 7.16101Z" fill="#555770"></path>
  <path d="M97.5692 14H96.1126L93.6156 10.2406H91.7568V14H90.5499V4.15074H94.0457C96.3207 4.15074 97.3057 5.45473 97.3057 7.20262C97.3057 8.88116 96.3901 9.82447 94.9613 10.1297V10.1435L97.5692 14ZM91.7568 5.26051V9.13086H93.7266C95.3635 9.13086 96.0572 8.29853 96.0572 7.17488C96.0572 5.92638 95.2387 5.26051 93.8931 5.26051H91.7568Z" fill="#555770"></path>
  <path d="M105.181 10.5181C105.181 10.6984 105.153 10.9342 105.153 10.9759H99.9507C100.103 12.2382 100.991 13.0567 102.212 13.0567C103.058 13.0567 103.696 12.6683 104.112 12.1411L104.903 12.8209C104.32 13.57 103.405 14.0832 102.17 14.0832C100.256 14.0832 98.8132 12.6821 98.8132 10.6291C98.8132 8.58984 100.214 7.16101 102.045 7.16101C103.932 7.16101 105.181 8.57597 105.181 10.5181ZM102.101 8.20142C101.047 8.20142 100.2 8.89503 99.9923 10.0464H104.071C103.89 8.93665 103.183 8.20142 102.101 8.20142Z" fill="#555770"></path>
  <path d="M111.219 7.24424H112.439L109.693 14H108.611L105.85 7.24424H107.057L109.138 12.5712H109.179L111.219 7.24424Z" fill="#555770"></path>
  <path d="M114.512 5.99574C114.055 5.99574 113.708 5.64894 113.708 5.20503C113.708 4.77499 114.055 4.41431 114.512 4.41431C114.956 4.41431 115.317 4.77499 115.317 5.20503C115.317 5.64894 114.956 5.99574 114.512 5.99574ZM113.944 14V7.24424H115.067V14H113.944Z" fill="#555770"></path>
  <path d="M123.266 10.5181C123.266 10.6984 123.238 10.9342 123.238 10.9759H118.036C118.189 12.2382 119.076 13.0567 120.297 13.0567C121.143 13.0567 121.782 12.6683 122.198 12.1411L122.988 12.8209C122.406 13.57 121.49 14.0832 120.256 14.0832C118.341 14.0832 116.899 12.6821 116.899 10.6291C116.899 8.58984 118.3 7.16101 120.131 7.16101C122.017 7.16101 123.266 8.57597 123.266 10.5181ZM120.186 8.20142C119.132 8.20142 118.286 8.89503 118.078 10.0464H122.156C121.976 8.93665 121.268 8.20142 120.186 8.20142Z" fill="#555770"></path>
  <path d="M132.69 7.24424H133.827L131.483 14H130.428L128.902 9.07537H128.889L127.349 14H126.322L123.978 7.24424H125.115L126.835 12.2937H126.863L128.403 7.24424H129.374L130.942 12.2937H130.969L132.69 7.24424Z" fill="#555770"></path>
  <path d="M137.264 14.0832C136.154 14.0832 135.28 13.7087 134.614 13.1122L135.197 12.266C135.724 12.7515 136.307 13.0706 137.264 13.0706C138.068 13.0706 138.54 12.6544 138.54 12.1689C138.54 11.5862 137.916 11.392 136.931 11.0591C135.835 10.6707 134.905 10.2129 134.905 8.97826C134.905 7.93785 135.849 7.16101 137.139 7.16101C137.944 7.16101 138.706 7.38296 139.456 7.99334L138.873 8.88116C138.276 8.36789 137.652 8.18755 137.083 8.18755C136.57 8.18755 136.043 8.49274 136.043 8.97826C136.043 9.50541 136.598 9.75511 137.319 10.0326C138.748 10.5874 139.691 10.8233 139.678 12.155C139.678 13.2093 138.887 14.0832 137.264 14.0832Z" fill="#555770"></path>
  <path d="M26.5747 26.7551C24.6207 28.3061 21.8851 29.4694 19.1494 29.4694C12.8966 29.4694 8.5977 24.8163 8.5977 18.6122C8.5977 12.4082 12.8966 8.14285 19.1494 8.14285C21.8851 8.14285 24.6207 8.91836 26.5747 10.8571L27.7471 12.0204L34 6.20408L32.4368 5.04081C28.9195 1.93877 24.2299 0 19.1494 0C8.2069 0 0 8.14285 0 19C0 29.8571 8.2069 38 19.1494 38C24.2299 38 28.9195 36.0612 32.4368 32.9592L34 31.7959L27.7471 25.5918L26.5747 26.7551Z" fill="#17313B"></path>
  <path d="M18.76 25.2035C22.2134 25.2035 25.0129 22.4259 25.0129 18.9995C25.0129 15.573 22.2134 12.7954 18.76 12.7954C15.3067 12.7954 12.5071 15.573 12.5071 18.9995C12.5071 22.4259 15.3067 25.2035 18.76 25.2035Z" fill="#EF4335"></path>
</svg>
