<svg xmlns="http://www.w3.org/2000/svg" xmlns:xlink="http://www.w3.org/1999/xlink" width="152" height="157" viewBox="0 0 152 157">
  <metadata><?xpacket begin="﻿" id="W5M0MpCehiHzreSzNTczkc9d"?>
<x:xmpmeta xmlns:x="adobe:ns:meta/" x:xmptk="Adobe XMP Core 5.6-c142 79.160924, 2017/07/13-01:06:39        ">
   <rdf:RDF xmlns:rdf="http://www.w3.org/1999/02/22-rdf-syntax-ns#">
      <rdf:Description rdf:about=""/>
   </rdf:RDF>
</x:xmpmeta>
                                                                                                    
                                                                                                    
                                                                                                    
                                                                                                    
                                                                                                    
                                                                                                    
                                                                                                    
                                                                                                    
                                                                                                    
                                                                                                    
                                                                                                    
                                                                                                    
                                                                                                    
                                                                                                    
                                                                                                    
                                                                                                    
                                                                                                    
                                                                                                    
                                                                                                    
                                                                                                    
                           
<?xpacket end="w"?></metadata>
<defs>
    <style>
      .cls-1 {
        fill-rule: evenodd;
        fill: url(#linear-gradient);
      }
    </style>
    <linearGradient id="linear-gradient" y1="154.5" x2="152" y2="2.5" gradientUnits="userSpaceOnUse">
      <stop offset="0" stop-color="#6bcaee"/>
      <stop offset="1" stop-color="#5399e6"/>
    </linearGradient>
  </defs>
  <path class="cls-1" d="M75.828,157q-36.109,0-72.217,0c-2.8,0-3.61-.805-3.61-3.577Q0,96.846,0,40.272c0-2.878.78-3.643,3.707-3.643h144.6c2.919,0,3.692.763,3.692,3.657q0,56.493,0,112.986c0,2.989-.751,3.726-3.79,3.726Q112.018,157,75.828,157Zm-20.9-44.487V41.976H5.293c-0.02.378-.048,0.645-0.047,0.912,0,10.623-.081,21.247.037,31.87a76.988,76.988,0,0,0,9.449,36.125,2.69,2.69,0,0,0,2.763,1.665c8.456-.071,16.913-0.036,25.37-0.036H54.929ZM112.6,74.446c0.052-.592.084-0.789,0.084-0.987,0-9.049-.017-18.1.032-27.147a1.373,1.373,0,0,0-1.261-1.517,52.741,52.741,0,0,0-14.995-2.139c-10.01-.032-18.6,3.336-25.575,10.5-6.81,6.995-9.672,15.537-9.8,25.226a31.308,31.308,0,0,0,32.9,32.151A17.323,17.323,0,0,0,110.69,95.948a62.4,62.4,0,0,0,.342-10.919,14.787,14.787,0,0,0-11.1-13.973,26.154,26.154,0,0,0-7.615-.627A13.269,13.269,0,0,0,79.7,81.7c-0.953,5.169,1.274,9.646,5.7,10.7,5.565,1.332,10.631.6,13.911-5.015a2.881,2.881,0,0,1,2.029-1.33,3.661,3.661,0,0,1,2.45,1.166c0.846,0.964.462,2.15-.231,3.17-3.669,5.4-8.772,7.9-15.3,7.743-8.624-.206-15.38-8.444-13.741-16.883C76.74,69.834,87.844,62.885,99.536,65.61A22.414,22.414,0,0,1,112.6,74.446Zm0.086,43.417H60.277c0,9.812.018,19.507-.024,29.2-0.005,1.154.79,1.16,1.469,1.354a81.309,81.309,0,0,0,30.429,2.992,56.724,56.724,0,0,0,19.406-5.478,2.006,2.006,0,0,0,1.084-1.32C112.7,135.735,112.687,126.858,112.687,117.863ZM118.04,47.4v65.112c7.414,0,14.718-.029,22.02.029a1.785,1.785,0,0,0,2.063-1.485,66.293,66.293,0,0,0,2.848-18c0.3-12.323-3-23.446-10.869-33.072A46.2,46.2,0,0,0,118.04,47.4ZM5.331,151.641H55.1c-23.506-9.5-40.022-25.549-49.77-49.007v49.007Zm49.578-5.559V117.841H19.087A79.306,79.306,0,0,0,54.909,146.082ZM146.69,113.9a1.355,1.355,0,0,0-.243.213c-0.123.3-.238,0.608-0.356,0.912a64.249,64.249,0,0,1-25.921,31.706c-2.105,1.336-2.6,2.732-2.071,4.945H146.69V113.9ZM118.314,41.944a55.494,55.494,0,0,1,28.362,29.713V41.944H118.314Zm-0.275,75.847v24.585a58.528,58.528,0,0,0,21.38-24.585h-21.38ZM60.411,41.9V59.273A42.591,42.591,0,0,1,77.764,41.9H60.411Zm16.143,70.53a38.3,38.3,0,0,1-16.2-15.6v15.6h16.2Zm28.755-.019h7.242v-7C110.158,107.725,107.716,110.086,105.309,112.415ZM20.965,14.32A9.69,9.69,0,0,1,11.9,23.545a9.69,9.69,0,0,1-9.279-9.01,9.672,9.672,0,0,1,9.147-9.306A9.685,9.685,0,0,1,20.965,14.32Zm-13.1-.178c-0.1,2.566,1.265,4.088,3.721,4.163,2.563,0.079,4.066-1.289,4.129-3.757,0.064-2.489-1.257-3.968-3.641-4.079C9.509,10.35,7.959,11.7,7.869,14.142ZM136.274,6.533c0,1.25.028,2.5-.007,3.749a2.615,2.615,0,0,1-2.567,2.792,2.588,2.588,0,0,1-2.654-2.7q-0.069-3.829,0-7.661A2.582,2.582,0,0,1,133.691,0a2.612,2.612,0,0,1,2.575,2.784C136.3,4.032,136.273,5.283,136.274,6.533ZM124.441,18.306c-1.306,0-2.614.049-3.917-.011a2.6,2.6,0,0,1,0-5.2c2.665-.059,5.334-0.065,8,0a2.595,2.595,0,0,1,0,5.186C127.165,18.36,125.8,18.3,124.441,18.306Zm18.381,0c-1.252,0-2.5.03-3.755-.007a2.61,2.61,0,0,1-2.787-2.571A2.583,2.583,0,0,1,139,13.092q3.834-.069,7.671,0a2.582,2.582,0,0,1,2.706,2.647,2.612,2.612,0,0,1-2.8,2.564C145.325,18.339,144.073,18.31,142.822,18.31Zm-11.788,6.572c0-1.3-.039-2.609.012-3.911a2.607,2.607,0,1,1,5.213.024c0.05,2.553.046,5.108,0,7.66a2.588,2.588,0,0,1-2.62,2.735,2.621,2.621,0,0,1-2.6-2.759c-0.027-.651-0.006-1.3-0.006-1.956Q131.033,25.778,131.034,24.882ZM94.3,7.841a2.613,2.613,0,1,1,2.663-2.526A2.636,2.636,0,0,1,94.3,7.841ZM39.314,23.418a2.619,2.619,0,1,1,2.449,2.736A2.646,2.646,0,0,1,39.314,23.418Z"/>
</svg>
