<svg xmlns="http://www.w3.org/2000/svg" xmlns:xlink="http://www.w3.org/1999/xlink" width="152" height="152" viewBox="0 0 152 152">
  <metadata><?xpacket begin="﻿" id="W5M0MpCehiHzreSzNTczkc9d"?>
<x:xmpmeta xmlns:x="adobe:ns:meta/" x:xmptk="Adobe XMP Core 5.6-c142 79.160924, 2017/07/13-01:06:39        ">
   <rdf:RDF xmlns:rdf="http://www.w3.org/1999/02/22-rdf-syntax-ns#">
      <rdf:Description rdf:about=""/>
   </rdf:RDF>
</x:xmpmeta>
                                                                                                    
                                                                                                    
                                                                                                    
                                                                                                    
                                                                                                    
                                                                                                    
                                                                                                    
                                                                                                    
                                                                                                    
                                                                                                    
                                                                                                    
                                                                                                    
                                                                                                    
                                                                                                    
                                                                                                    
                                                                                                    
                                                                                                    
                                                                                                    
                                                                                                    
                                                                                                    
                           
<?xpacket end="w"?></metadata>
<defs>
    <style>
      .cls-1 {
        fill-rule: evenodd;
        fill: url(#linear-gradient);
      }
    </style>
    <linearGradient id="linear-gradient" x1="1537" y1="1368" x2="1385" y2="1216" gradientUnits="userSpaceOnUse">
      <stop offset="0" stop-color="#8c74e0"/>
      <stop offset="1" stop-color="#c5729d"/>
    </linearGradient>
  </defs>
  <path class="cls-1" d="M1402.73,1347.73a17.758,17.758,0,0,0-17.73,17.73,2.529,2.529,0,0,0,2.53,2.54h30.4a2.537,2.537,0,0,0,2.54-2.54A17.76,17.76,0,0,0,1402.73,1347.73Zm-12.41,15.2a12.689,12.689,0,0,1,9.88-9.85v4.78h5.07v-4.78a12.663,12.663,0,0,1,9.87,9.85h-24.82Zm144.15-38h-4.45c-0.14-.35-0.28-0.7-0.44-1.05l3.15-3.15a2.529,2.529,0,0,0,0-3.58l-10.75-10.75a2.47,2.47,0,0,0-1.9-.71,12.671,12.671,0,0,0,6.79-11.16v-65.87A12.684,12.684,0,0,0,1514.2,1216H1397.67a12.677,12.677,0,0,0-12.67,12.66v65.87a12.686,12.686,0,0,0,12.67,12.67h33.06l-9.57,17.73h-4.49a8.865,8.865,0,1,0,0,17.73h54.46a2.537,2.537,0,0,0,2.54,2.54h4.44c0.14,0.35.28,0.7,0.44,1.05l-3.14,3.14a2.541,2.541,0,0,0,0,3.59l10.74,10.74a2.541,2.541,0,0,0,3.59,0l3.14-3.14c0.35,0.16.7,0.3,1.05,0.44v4.44a2.537,2.537,0,0,0,2.54,2.54h15.2a2.529,2.529,0,0,0,2.53-2.54v-4.44c0.35-.14.7-0.28,1.05-0.44l3.15,3.14a2.529,2.529,0,0,0,3.58,0l10.75-10.74a2.541,2.541,0,0,0,0-3.59l-3.15-3.14c0.16-.35.3-0.7,0.44-1.05h4.45a2.529,2.529,0,0,0,2.53-2.54v-15.2A2.527,2.527,0,0,0,1534.47,1324.93Zm-144.4-96.27a7.609,7.609,0,0,1,7.6-7.6H1514.2a7.609,7.609,0,0,1,7.6,7.6v53.2H1390.07v-53.2Zm7.6,73.47a7.609,7.609,0,0,1-7.6-7.6v-7.6H1521.8v7.6a7.609,7.609,0,0,1-7.6,7.6H1397.67Zm120.69,4.31-3.11,3.11c-0.35-.16-0.7-0.3-1.05-0.44v-1.91A12.474,12.474,0,0,0,1518.36,1306.44Zm-24.43.76v1.91c-0.35.14-.7,0.28-1.05,0.44l-2.35-2.35h3.4Zm-8.57,0-2.19,2.18-1.48-2.18h3.67Zm-14.23,30.4h-54.46a3.8,3.8,0,0,1,0-7.6h54.46v7.6Zm-44.22-12.67,9.57-17.73h39.08l3.97,5.83-4.12,4.12a2.529,2.529,0,0,0,0,3.58l3.14,3.14c-0.16.36-.3,0.71-0.44,1.06h-51.2Zm105.02,15.2h-3.69a2.536,2.536,0,0,0-2.42,1.77,21.579,21.579,0,0,1-1.55,3.7,2.536,2.536,0,0,0,.46,2.96l2.63,2.63-7.17,7.16-2.62-2.62a2.536,2.536,0,0,0-2.97-.46,23.2,23.2,0,0,1-3.69,1.55,2.53,2.53,0,0,0-1.78,2.41v3.7H1499v-3.7a2.533,2.533,0,0,0-1.77-2.41,23.693,23.693,0,0,1-3.7-1.55,2.536,2.536,0,0,0-2.96.46l-2.63,2.62-7.16-7.16,2.62-2.63a2.521,2.521,0,0,0,.46-2.96,22.341,22.341,0,0,1-1.54-3.7,2.555,2.555,0,0,0-2.42-1.77h-3.7V1330h3.7a2.533,2.533,0,0,0,2.41-1.77,23.3,23.3,0,0,1,1.55-3.7,2.536,2.536,0,0,0-.46-2.96l-2.62-2.63,7.16-7.16,2.63,2.62a2.521,2.521,0,0,0,2.96.46,23.3,23.3,0,0,1,3.7-1.55,2.536,2.536,0,0,0,1.77-2.42v-3.69h10.13v3.69a2.536,2.536,0,0,0,1.77,2.42,21.579,21.579,0,0,1,3.7,1.55,2.536,2.536,0,0,0,2.96-.46l2.63-2.63,7.16,7.17-2.62,2.62a2.551,2.551,0,0,0-.46,2.97,23.2,23.2,0,0,1,1.55,3.69,2.533,2.533,0,0,0,2.42,1.78h3.69v10.13Zm-27.86-20.27a15.2,15.2,0,1,0,15.2,15.2A15.212,15.212,0,0,0,1504.07,1319.86Zm0,25.34a10.135,10.135,0,1,1,10.13-10.14A10.153,10.153,0,0,1,1504.07,1345.2Zm-69.15-109.68-3.58-3.58-17.73,17.73a2.541,2.541,0,0,0,0,3.59l17.73,17.73,3.58-3.58-15.94-15.95Zm55.74,14.15-17.74-17.73-3.58,3.58,15.94,15.94-15.94,15.95,3.58,3.58,17.74-17.73A2.541,2.541,0,0,0,1490.66,1249.67Zm-52.2,20.93,22.8-45.59,4.53,2.27L1443,1272.86Zm45.34-3.94h5.07v5.07h-5.07v-5.07Zm10.13,0H1499v5.07h-5.07v-5.07Zm10.14,0h5.06v5.07h-5.06v-5.07Z" transform="translate(-1385 -1216)"/>
</svg>
