<svg width="30" height="25" viewBox="0 0 30 25" fill="none" xmlns="http://www.w3.org/2000/svg">
<path d="M22.3361 12.6611V13.1611H22.8361H27.0001C27.675 13.1611 28.3152 13.4097 28.7816 13.8416C29.2467 14.2722 29.5 14.8477 29.5 15.4389V22.2222C29.5 22.8134 29.2467 23.3889 28.7816 23.8195C28.3152 24.2514 27.675 24.5 27.0001 24.5H21.0002C20.3252 24.5 19.685 24.2514 19.2186 23.8195C18.7535 23.3889 18.5002 22.8134 18.5002 22.2222L18.5002 12.6611L18.5002 12.6575C18.4888 11.0785 18.6708 9.50315 19.0429 7.96166C19.4069 6.58888 20.0083 5.27808 20.8248 4.08004C21.6272 3.01308 22.6792 2.12244 23.9063 1.47564L23.9065 1.4755C25.0043 0.896009 26.2747 0.570188 27.733 0.510153V3.82444C26.8104 3.89589 26.005 4.17151 25.3381 4.67372C24.5856 5.1839 23.979 5.8756 23.5121 6.74021L23.5118 6.74084C23.0517 7.59578 22.7241 8.56639 22.53 9.64476L22.5277 9.6577L22.5261 9.67075C22.4005 10.6659 22.3361 11.6646 22.3361 12.6611ZM4.33644 12.6611V13.1611H4.83644H9.00036C9.67528 13.1611 10.3155 13.4097 10.7819 13.8416C11.247 14.2722 11.5003 14.8477 11.5003 15.4389V22.2222C11.5003 22.8134 11.247 23.3889 10.7819 23.8195C10.3155 24.2514 9.67527 24.5 9.00036 24.5H3.00047C2.32556 24.5 1.68529 24.2514 1.21889 23.8195C0.753785 23.3889 0.50052 22.8134 0.50052 22.2222L0.500533 12.6611L0.500507 12.6575C0.489075 11.0785 0.671108 9.50314 1.04324 7.96163C1.40725 6.58887 2.00859 5.27808 2.82511 4.08006C3.62749 3.01309 4.67956 2.12244 5.90658 1.47564L5.90684 1.4755C7.00459 0.896009 8.27505 0.570188 9.73334 0.510153V3.82444C8.81069 3.89589 8.00527 4.17152 7.33842 4.67372C6.58587 5.1839 5.97934 5.8756 5.51246 6.74021L5.51212 6.74084C5.05206 7.59578 4.72444 8.56639 4.53034 9.64476L4.52801 9.6577L4.52636 9.67075C4.40083 10.6659 4.33644 11.6646 4.33644 12.6611Z" fill="#FF7506" stroke="#FF7506"/>
</svg>
